<svg width="173" height="44" viewBox="0 0 173 44" fill="none" xmlns="http://www.w3.org/2000/svg">
<rect width="173" height="44" rx="12" fill="#DAF5ED"/>
<path d="M44.544 16.928V28H43.088V19.744L39.408 28H38.384L34.688 19.728V28H33.232V16.928H34.8L38.896 26.08L42.992 16.928H44.544ZM46.4693 23.584C46.4693 22.688 46.6506 21.904 47.0133 21.232C47.3759 20.5493 47.8719 20.0213 48.5013 19.648C49.1413 19.2747 49.8506 19.088 50.6293 19.088C51.3973 19.088 52.0639 19.2533 52.6293 19.584C53.1946 19.9147 53.6159 20.3307 53.8933 20.832V19.232H55.3653V28H53.8933V26.368C53.6053 26.88 53.1733 27.3067 52.5973 27.648C52.0319 27.9787 51.3706 28.144 50.6133 28.144C49.8346 28.144 49.1306 27.952 48.5013 27.568C47.8719 27.184 47.3759 26.6453 47.0133 25.952C46.6506 25.2587 46.4693 24.4693 46.4693 23.584ZM53.8933 23.6C53.8933 22.9387 53.7599 22.3627 53.4933 21.872C53.2266 21.3813 52.8639 21.008 52.4053 20.752C51.9573 20.4853 51.4613 20.352 50.9173 20.352C50.3733 20.352 49.8773 20.48 49.4293 20.736C48.9813 20.992 48.6239 21.3653 48.3573 21.856C48.0906 22.3467 47.9573 22.9227 47.9573 23.584C47.9573 24.256 48.0906 24.8427 48.3573 25.344C48.6239 25.8347 48.9813 26.2133 49.4293 26.48C49.8773 26.736 50.3733 26.864 50.9173 26.864C51.4613 26.864 51.9573 26.736 52.4053 26.48C52.8639 26.2133 53.2266 25.8347 53.4933 25.344C53.7599 24.8427 53.8933 24.2613 53.8933 23.6ZM62.0978 19.072C63.1644 19.072 64.0284 19.3973 64.6898 20.048C65.3511 20.688 65.6818 21.616 65.6818 22.832V28H64.2418V23.04C64.2418 22.1653 64.0231 21.4987 63.5858 21.04C63.1484 20.5707 62.5511 20.336 61.7938 20.336C61.0258 20.336 60.4124 20.576 59.9538 21.056C59.5058 21.536 59.2818 22.2347 59.2818 23.152V28H57.8258V19.232H59.2818V20.48C59.5698 20.032 59.9591 19.6853 60.4498 19.44C60.9511 19.1947 61.5004 19.072 62.0978 19.072ZM67.5161 23.584C67.5161 22.688 67.6975 21.904 68.0601 21.232C68.4228 20.5493 68.9188 20.0213 69.5481 19.648C70.1881 19.2747 70.8975 19.088 71.6761 19.088C72.4441 19.088 73.1108 19.2533 73.6761 19.584C74.2415 19.9147 74.6628 20.3307 74.9401 20.832V19.232H76.4121V28H74.9401V26.368C74.6521 26.88 74.2201 27.3067 73.6441 27.648C73.0788 27.9787 72.4175 28.144 71.6601 28.144C70.8815 28.144 70.1775 27.952 69.5481 27.568C68.9188 27.184 68.4228 26.6453 68.0601 25.952C67.6975 25.2587 67.5161 24.4693 67.5161 23.584ZM74.9401 23.6C74.9401 22.9387 74.8068 22.3627 74.5401 21.872C74.2735 21.3813 73.9108 21.008 73.4521 20.752C73.0041 20.4853 72.5081 20.352 71.9641 20.352C71.4201 20.352 70.9241 20.48 70.4761 20.736C70.0281 20.992 69.6708 21.3653 69.4041 21.856C69.1375 22.3467 69.0041 22.9227 69.0041 23.584C69.0041 24.256 69.1375 24.8427 69.4041 25.344C69.6708 25.8347 70.0281 26.2133 70.4761 26.48C70.9241 26.736 71.4201 26.864 71.9641 26.864C72.5081 26.864 73.0041 26.736 73.4521 26.48C73.9108 26.2133 74.2735 25.8347 74.5401 25.344C74.8068 24.8427 74.9401 24.2613 74.9401 23.6ZM82.4886 19.088C83.246 19.088 83.9073 19.2533 84.4726 19.584C85.0486 19.9147 85.4753 20.3307 85.7526 20.832V19.232H87.2246V28.192C87.2246 28.992 87.054 29.7013 86.7126 30.32C86.3713 30.9493 85.8806 31.44 85.2406 31.792C84.6113 32.144 83.8753 32.32 83.0326 32.32C81.8806 32.32 80.9206 32.048 80.1526 31.504C79.3846 30.96 78.9313 30.2187 78.7926 29.28H80.2326C80.3926 29.8133 80.7233 30.24 81.2246 30.56C81.726 30.8907 82.3286 31.056 83.0326 31.056C83.8326 31.056 84.4833 30.8053 84.9846 30.304C85.4966 29.8027 85.7526 29.0987 85.7526 28.192V26.352C85.4646 26.864 85.038 27.2907 84.4726 27.632C83.9073 27.9733 83.246 28.144 82.4886 28.144C81.71 28.144 81.0006 27.952 80.3606 27.568C79.7313 27.184 79.2353 26.6453 78.8726 25.952C78.51 25.2587 78.3286 24.4693 78.3286 23.584C78.3286 22.688 78.51 21.904 78.8726 21.232C79.2353 20.5493 79.7313 20.0213 80.3606 19.648C81.0006 19.2747 81.71 19.088 82.4886 19.088ZM85.7526 23.6C85.7526 22.9387 85.6193 22.3627 85.3526 21.872C85.086 21.3813 84.7233 21.008 84.2646 20.752C83.8166 20.4853 83.3206 20.352 82.7766 20.352C82.2326 20.352 81.7366 20.48 81.2886 20.736C80.8406 20.992 80.4833 21.3653 80.2166 21.856C79.95 22.3467 79.8166 22.9227 79.8166 23.584C79.8166 24.256 79.95 24.8427 80.2166 25.344C80.4833 25.8347 80.8406 26.2133 81.2886 26.48C81.7366 26.736 82.2326 26.864 82.7766 26.864C83.3206 26.864 83.8166 26.736 84.2646 26.48C84.7233 26.2133 85.086 25.8347 85.3526 25.344C85.6193 24.8427 85.7526 24.2613 85.7526 23.6ZM97.6851 23.28C97.6851 23.5573 97.6691 23.8507 97.6371 24.16H90.6291C90.6825 25.024 90.9758 25.7013 91.5091 26.192C92.0531 26.672 92.7091 26.912 93.4771 26.912C94.1065 26.912 94.6291 26.768 95.0451 26.48C95.4718 26.1813 95.7705 25.7867 95.9411 25.296H97.5091C97.2745 26.1387 96.8051 26.8267 96.1011 27.36C95.3971 27.8827 94.5225 28.144 93.4771 28.144C92.6451 28.144 91.8985 27.9573 91.2371 27.584C90.5865 27.2107 90.0745 26.6827 89.7011 26C89.3278 25.3067 89.1411 24.5067 89.1411 23.6C89.1411 22.6933 89.3225 21.8987 89.6851 21.216C90.0478 20.5333 90.5545 20.0107 91.2051 19.648C91.8665 19.2747 92.6238 19.088 93.4771 19.088C94.3091 19.088 95.0451 19.2693 95.6851 19.632C96.3251 19.9947 96.8158 20.496 97.1571 21.136C97.5091 21.7653 97.6851 22.48 97.6851 23.28ZM96.1811 22.976C96.1811 22.4213 96.0585 21.9467 95.8131 21.552C95.5678 21.1467 95.2318 20.8427 94.8051 20.64C94.3891 20.4267 93.9251 20.32 93.4131 20.32C92.6771 20.32 92.0478 20.5547 91.5251 21.024C91.0131 21.4933 90.7198 22.144 90.6451 22.976H96.1811ZM110.151 19.072C110.834 19.072 111.442 19.216 111.975 19.504C112.508 19.7813 112.93 20.2027 113.239 20.768C113.548 21.3333 113.703 22.0213 113.703 22.832V28H112.263V23.04C112.263 22.1653 112.044 21.4987 111.607 21.04C111.18 20.5707 110.599 20.336 109.863 20.336C109.106 20.336 108.503 20.5813 108.055 21.072C107.607 21.552 107.383 22.2507 107.383 23.168V28H105.943V23.04C105.943 22.1653 105.724 21.4987 105.287 21.04C104.86 20.5707 104.279 20.336 103.543 20.336C102.786 20.336 102.183 20.5813 101.735 21.072C101.287 21.552 101.063 22.2507 101.063 23.168V28H99.607V19.232H101.063V20.496C101.351 20.0373 101.735 19.6853 102.215 19.44C102.706 19.1947 103.244 19.072 103.831 19.072C104.567 19.072 105.218 19.2373 105.783 19.568C106.348 19.8987 106.77 20.384 107.047 21.024C107.292 20.4053 107.698 19.9253 108.263 19.584C108.828 19.2427 109.458 19.072 110.151 19.072ZM124.091 23.28C124.091 23.5573 124.075 23.8507 124.043 24.16H117.035C117.089 25.024 117.382 25.7013 117.915 26.192C118.459 26.672 119.115 26.912 119.883 26.912C120.513 26.912 121.035 26.768 121.451 26.48C121.878 26.1813 122.177 25.7867 122.347 25.296H123.915C123.681 26.1387 123.211 26.8267 122.507 27.36C121.803 27.8827 120.929 28.144 119.883 28.144C119.051 28.144 118.305 27.9573 117.643 27.584C116.993 27.2107 116.481 26.6827 116.107 26C115.734 25.3067 115.547 24.5067 115.547 23.6C115.547 22.6933 115.729 21.8987 116.091 21.216C116.454 20.5333 116.961 20.0107 117.611 19.648C118.273 19.2747 119.03 19.088 119.883 19.088C120.715 19.088 121.451 19.2693 122.091 19.632C122.731 19.9947 123.222 20.496 123.563 21.136C123.915 21.7653 124.091 22.48 124.091 23.28ZM122.587 22.976C122.587 22.4213 122.465 21.9467 122.219 21.552C121.974 21.1467 121.638 20.8427 121.211 20.64C120.795 20.4267 120.331 20.32 119.819 20.32C119.083 20.32 118.454 20.5547 117.931 21.024C117.419 21.4933 117.126 22.144 117.051 22.976H122.587ZM130.285 19.072C131.352 19.072 132.216 19.3973 132.877 20.048C133.539 20.688 133.869 21.616 133.869 22.832V28H132.429V23.04C132.429 22.1653 132.211 21.4987 131.773 21.04C131.336 20.5707 130.739 20.336 129.981 20.336C129.213 20.336 128.6 20.576 128.141 21.056C127.693 21.536 127.469 22.2347 127.469 23.152V28H126.013V19.232H127.469V20.48C127.757 20.032 128.147 19.6853 128.637 19.44C129.139 19.1947 129.688 19.072 130.285 19.072ZM138.024 20.432V25.6C138.024 26.0267 138.114 26.3307 138.296 26.512C138.477 26.6827 138.792 26.768 139.24 26.768H140.312V28H139C138.189 28 137.581 27.8133 137.176 27.44C136.77 27.0667 136.568 26.4533 136.568 25.6V20.432H135.432V19.232H136.568V17.024H138.024V19.232H140.312V20.432H138.024Z" fill="#38B990"/>
</svg>
