<svg width="119" height="44" viewBox="0 0 119 44" fill="none" xmlns="http://www.w3.org/2000/svg">
<rect width="119" height="44" rx="12" fill="#DAF5ED"/>
<path d="M36.704 16.848C37.92 16.848 38.9707 17.0773 39.856 17.536C40.752 17.984 41.4347 18.6293 41.904 19.472C42.384 20.3147 42.624 21.3067 42.624 22.448C42.624 23.5893 42.384 24.5813 41.904 25.424C41.4347 26.256 40.752 26.896 39.856 27.344C38.9707 27.7813 37.92 28 36.704 28H33.232V16.848H36.704ZM36.704 26.8C38.144 26.8 39.2427 26.4213 40 25.664C40.7573 24.896 41.136 23.824 41.136 22.448C41.136 21.0613 40.752 19.9787 39.984 19.2C39.2267 18.4213 38.1333 18.032 36.704 18.032H34.688V26.8H36.704ZM52.5445 23.28C52.5445 23.5573 52.5285 23.8507 52.4965 24.16H45.4885C45.5418 25.024 45.8352 25.7013 46.3685 26.192C46.9125 26.672 47.5685 26.912 48.3365 26.912C48.9658 26.912 49.4885 26.768 49.9045 26.48C50.3312 26.1813 50.6298 25.7867 50.8005 25.296H52.3685C52.1338 26.1387 51.6645 26.8267 50.9605 27.36C50.2565 27.8827 49.3818 28.144 48.3365 28.144C47.5045 28.144 46.7578 27.9573 46.0965 27.584C45.4458 27.2107 44.9338 26.6827 44.5605 26C44.1872 25.3067 44.0005 24.5067 44.0005 23.6C44.0005 22.6933 44.1818 21.8987 44.5445 21.216C44.9072 20.5333 45.4138 20.0107 46.0645 19.648C46.7258 19.2747 47.4832 19.088 48.3365 19.088C49.1685 19.088 49.9045 19.2693 50.5445 19.632C51.1845 19.9947 51.6752 20.496 52.0165 21.136C52.3685 21.7653 52.5445 22.48 52.5445 23.28ZM51.0405 22.976C51.0405 22.4213 50.9178 21.9467 50.6725 21.552C50.4272 21.1467 50.0912 20.8427 49.6645 20.64C49.2485 20.4267 48.7845 20.32 48.2725 20.32C47.5365 20.32 46.9072 20.5547 46.3845 21.024C45.8725 21.4933 45.5792 22.144 45.5045 22.976H51.0405ZM57.5704 28.144C56.8984 28.144 56.2957 28.032 55.7624 27.808C55.229 27.5733 54.8077 27.2533 54.4984 26.848C54.189 26.432 54.0184 25.9573 53.9864 25.424H55.4904C55.533 25.8613 55.7357 26.2187 56.0984 26.496C56.4717 26.7733 56.957 26.912 57.5544 26.912C58.109 26.912 58.5464 26.7893 58.8664 26.544C59.1864 26.2987 59.3464 25.9893 59.3464 25.616C59.3464 25.232 59.1757 24.9493 58.8344 24.768C58.493 24.576 57.965 24.3893 57.2504 24.208C56.5997 24.0373 56.0664 23.8667 55.6504 23.696C55.245 23.5147 54.893 23.2533 54.5944 22.912C54.3064 22.56 54.1624 22.1013 54.1624 21.536C54.1624 21.088 54.2957 20.6773 54.5624 20.304C54.829 19.9307 55.2077 19.6373 55.6984 19.424C56.189 19.2 56.749 19.088 57.3784 19.088C58.349 19.088 59.133 19.3333 59.7304 19.824C60.3277 20.3147 60.6477 20.9867 60.6904 21.84H59.2344C59.2024 21.3813 59.0157 21.0133 58.6744 20.736C58.3437 20.4587 57.8957 20.32 57.3304 20.32C56.8077 20.32 56.3917 20.432 56.0824 20.656C55.773 20.88 55.6184 21.1733 55.6184 21.536C55.6184 21.824 55.709 22.064 55.8904 22.256C56.0824 22.4373 56.317 22.5867 56.5944 22.704C56.8824 22.8107 57.277 22.9333 57.7784 23.072C58.4077 23.2427 58.9197 23.4133 59.3144 23.584C59.709 23.744 60.045 23.9893 60.3224 24.32C60.6104 24.6507 60.7597 25.0827 60.7704 25.616C60.7704 26.096 60.637 26.528 60.3704 26.912C60.1037 27.296 59.725 27.6 59.2344 27.824C58.7544 28.0373 58.1997 28.144 57.5704 28.144ZM63.5778 17.808C63.3004 17.808 63.0658 17.712 62.8738 17.52C62.6818 17.328 62.5858 17.0933 62.5858 16.816C62.5858 16.5387 62.6818 16.304 62.8738 16.112C63.0658 15.92 63.3004 15.824 63.5778 15.824C63.8444 15.824 64.0684 15.92 64.2498 16.112C64.4418 16.304 64.5378 16.5387 64.5378 16.816C64.5378 17.0933 64.4418 17.328 64.2498 17.52C64.0684 17.712 63.8444 17.808 63.5778 17.808ZM64.2818 19.232V28H62.8258V19.232H64.2818ZM70.3793 19.088C71.1366 19.088 71.7979 19.2533 72.3633 19.584C72.9393 19.9147 73.3659 20.3307 73.6433 20.832V19.232H75.1153V28.192C75.1153 28.992 74.9446 29.7013 74.6033 30.32C74.2619 30.9493 73.7713 31.44 73.1313 31.792C72.5019 32.144 71.7659 32.32 70.9233 32.32C69.7713 32.32 68.8113 32.048 68.0433 31.504C67.2753 30.96 66.8219 30.2187 66.6833 29.28H68.1233C68.2833 29.8133 68.6139 30.24 69.1153 30.56C69.6166 30.8907 70.2193 31.056 70.9233 31.056C71.7233 31.056 72.3739 30.8053 72.8753 30.304C73.3873 29.8027 73.6433 29.0987 73.6433 28.192V26.352C73.3553 26.864 72.9286 27.2907 72.3633 27.632C71.7979 27.9733 71.1366 28.144 70.3793 28.144C69.6006 28.144 68.8913 27.952 68.2513 27.568C67.6219 27.184 67.1259 26.6453 66.7633 25.952C66.4006 25.2587 66.2193 24.4693 66.2193 23.584C66.2193 22.688 66.4006 21.904 66.7633 21.232C67.1259 20.5493 67.6219 20.0213 68.2513 19.648C68.8913 19.2747 69.6006 19.088 70.3793 19.088ZM73.6433 23.6C73.6433 22.9387 73.5099 22.3627 73.2433 21.872C72.9766 21.3813 72.6139 21.008 72.1553 20.752C71.7073 20.4853 71.2113 20.352 70.6673 20.352C70.1233 20.352 69.6273 20.48 69.1793 20.736C68.7313 20.992 68.3739 21.3653 68.1073 21.856C67.8406 22.3467 67.7073 22.9227 67.7073 23.584C67.7073 24.256 67.8406 24.8427 68.1073 25.344C68.3739 25.8347 68.7313 26.2133 69.1793 26.48C69.6273 26.736 70.1233 26.864 70.6673 26.864C71.2113 26.864 71.7073 26.736 72.1553 26.48C72.6139 26.2133 72.9766 25.8347 73.2433 25.344C73.5099 24.8427 73.6433 24.2613 73.6433 23.6ZM81.8478 19.072C82.9144 19.072 83.7784 19.3973 84.4398 20.048C85.1011 20.688 85.4318 21.616 85.4318 22.832V28H83.9918V23.04C83.9918 22.1653 83.7731 21.4987 83.3358 21.04C82.8984 20.5707 82.3011 20.336 81.5438 20.336C80.7758 20.336 80.1624 20.576 79.7038 21.056C79.2558 21.536 79.0318 22.2347 79.0318 23.152V28H77.5758V19.232H79.0318V20.48C79.3198 20.032 79.7091 19.6853 80.1998 19.44C80.7011 19.1947 81.2504 19.072 81.8478 19.072Z" fill="#38B990"/>
</svg>
