<svg width="172" height="44" viewBox="0 0 172 44" fill="none" xmlns="http://www.w3.org/2000/svg">
<rect width="172" height="44" rx="12" fill="#DAF5ED"/>
<path d="M36.704 16.848C37.92 16.848 38.9707 17.0773 39.856 17.536C40.752 17.984 41.4347 18.6293 41.904 19.472C42.384 20.3147 42.624 21.3067 42.624 22.448C42.624 23.5893 42.384 24.5813 41.904 25.424C41.4347 26.256 40.752 26.896 39.856 27.344C38.9707 27.7813 37.92 28 36.704 28H33.232V16.848H36.704ZM36.704 26.8C38.144 26.8 39.2427 26.4213 40 25.664C40.7573 24.896 41.136 23.824 41.136 22.448C41.136 21.0613 40.752 19.9787 39.984 19.2C39.2267 18.4213 38.1333 18.032 36.704 18.032H34.688V26.8H36.704ZM52.5445 23.28C52.5445 23.5573 52.5285 23.8507 52.4965 24.16H45.4885C45.5418 25.024 45.8352 25.7013 46.3685 26.192C46.9125 26.672 47.5685 26.912 48.3365 26.912C48.9658 26.912 49.4885 26.768 49.9045 26.48C50.3312 26.1813 50.6298 25.7867 50.8005 25.296H52.3685C52.1338 26.1387 51.6645 26.8267 50.9605 27.36C50.2565 27.8827 49.3818 28.144 48.3365 28.144C47.5045 28.144 46.7578 27.9573 46.0965 27.584C45.4458 27.2107 44.9338 26.6827 44.5605 26C44.1872 25.3067 44.0005 24.5067 44.0005 23.6C44.0005 22.6933 44.1818 21.8987 44.5445 21.216C44.9072 20.5333 45.4138 20.0107 46.0645 19.648C46.7258 19.2747 47.4832 19.088 48.3365 19.088C49.1685 19.088 49.9045 19.2693 50.5445 19.632C51.1845 19.9947 51.6752 20.496 52.0165 21.136C52.3685 21.7653 52.5445 22.48 52.5445 23.28ZM51.0405 22.976C51.0405 22.4213 50.9178 21.9467 50.6725 21.552C50.4272 21.1467 50.0912 20.8427 49.6645 20.64C49.2485 20.4267 48.7845 20.32 48.2725 20.32C47.5365 20.32 46.9072 20.5547 46.3845 21.024C45.8725 21.4933 45.5792 22.144 45.5045 22.976H51.0405ZM57.7304 26.656L60.4504 19.232H62.0024L58.5624 28H56.8664L53.4264 19.232H54.9944L57.7304 26.656ZM71.4351 23.28C71.4351 23.5573 71.4191 23.8507 71.3871 24.16H64.3791C64.4325 25.024 64.7258 25.7013 65.2591 26.192C65.8031 26.672 66.4591 26.912 67.2271 26.912C67.8565 26.912 68.3791 26.768 68.7951 26.48C69.2218 26.1813 69.5205 25.7867 69.6911 25.296H71.2591C71.0245 26.1387 70.5551 26.8267 69.8511 27.36C69.1471 27.8827 68.2725 28.144 67.2271 28.144C66.3951 28.144 65.6485 27.9573 64.9871 27.584C64.3365 27.2107 63.8245 26.6827 63.4511 26C63.0778 25.3067 62.8911 24.5067 62.8911 23.6C62.8911 22.6933 63.0725 21.8987 63.4351 21.216C63.7978 20.5333 64.3045 20.0107 64.9551 19.648C65.6165 19.2747 66.3738 19.088 67.2271 19.088C68.0591 19.088 68.7951 19.2693 69.4351 19.632C70.0751 19.9947 70.5658 20.496 70.9071 21.136C71.2591 21.7653 71.4351 22.48 71.4351 23.28ZM69.9311 22.976C69.9311 22.4213 69.8085 21.9467 69.5631 21.552C69.3178 21.1467 68.9818 20.8427 68.5551 20.64C68.1391 20.4267 67.6751 20.32 67.1631 20.32C66.4271 20.32 65.7978 20.5547 65.2751 21.024C64.7631 21.4933 64.4698 22.144 64.3951 22.976H69.9311ZM74.813 16.16V28H73.357V16.16H74.813ZM81.1185 28.144C80.2972 28.144 79.5505 27.9573 78.8785 27.584C78.2172 27.2107 77.6945 26.6827 77.3105 26C76.9372 25.3067 76.7505 24.5067 76.7505 23.6C76.7505 22.704 76.9425 21.9147 77.3265 21.232C77.7212 20.5387 78.2545 20.0107 78.9265 19.648C79.5985 19.2747 80.3505 19.088 81.1825 19.088C82.0145 19.088 82.7665 19.2747 83.4385 19.648C84.1105 20.0107 84.6385 20.5333 85.0225 21.216C85.4172 21.8987 85.6145 22.6933 85.6145 23.6C85.6145 24.5067 85.4118 25.3067 85.0065 26C84.6118 26.6827 84.0732 27.2107 83.3905 27.584C82.7078 27.9573 81.9505 28.144 81.1185 28.144ZM81.1185 26.864C81.6412 26.864 82.1318 26.7413 82.5905 26.496C83.0492 26.2507 83.4172 25.8827 83.6945 25.392C83.9825 24.9013 84.1265 24.304 84.1265 23.6C84.1265 22.896 83.9878 22.2987 83.7105 21.808C83.4332 21.3173 83.0705 20.9547 82.6225 20.72C82.1745 20.4747 81.6892 20.352 81.1665 20.352C80.6332 20.352 80.1425 20.4747 79.6945 20.72C79.2572 20.9547 78.9052 21.3173 78.6385 21.808C78.3718 22.2987 78.2385 22.896 78.2385 23.6C78.2385 24.3147 78.3665 24.9173 78.6225 25.408C78.8892 25.8987 79.2412 26.2667 79.6785 26.512C80.1158 26.7467 80.5958 26.864 81.1185 26.864ZM88.9849 20.848C89.2729 20.3467 89.6995 19.9307 90.2649 19.6C90.8409 19.2587 91.5075 19.088 92.2649 19.088C93.0435 19.088 93.7475 19.2747 94.3769 19.648C95.0169 20.0213 95.5182 20.5493 95.8809 21.232C96.2435 21.904 96.4249 22.688 96.4249 23.584C96.4249 24.4693 96.2435 25.2587 95.8809 25.952C95.5182 26.6453 95.0169 27.184 94.3769 27.568C93.7475 27.952 93.0435 28.144 92.2649 28.144C91.5182 28.144 90.8569 27.9787 90.2809 27.648C89.7155 27.3067 89.2835 26.8853 88.9849 26.384V32.16H87.5289V19.232H88.9849V20.848ZM94.9369 23.584C94.9369 22.9227 94.8035 22.3467 94.5369 21.856C94.2702 21.3653 93.9075 20.992 93.4489 20.736C93.0009 20.48 92.5049 20.352 91.9609 20.352C91.4275 20.352 90.9315 20.4853 90.4729 20.752C90.0249 21.008 89.6622 21.3867 89.3849 21.888C89.1182 22.3787 88.9849 22.9493 88.9849 23.6C88.9849 24.2613 89.1182 24.8427 89.3849 25.344C89.6622 25.8347 90.0249 26.2133 90.4729 26.48C90.9315 26.736 91.4275 26.864 91.9609 26.864C92.5049 26.864 93.0009 26.736 93.4489 26.48C93.9075 26.2133 94.2702 25.8347 94.5369 25.344C94.8035 24.8427 94.9369 24.256 94.9369 23.584ZM108.885 19.072C109.568 19.072 110.176 19.216 110.709 19.504C111.243 19.7813 111.664 20.2027 111.973 20.768C112.283 21.3333 112.437 22.0213 112.437 22.832V28H110.997V23.04C110.997 22.1653 110.779 21.4987 110.341 21.04C109.915 20.5707 109.333 20.336 108.597 20.336C107.84 20.336 107.237 20.5813 106.789 21.072C106.341 21.552 106.117 22.2507 106.117 23.168V28H104.677V23.04C104.677 22.1653 104.459 21.4987 104.021 21.04C103.595 20.5707 103.013 20.336 102.277 20.336C101.52 20.336 100.917 20.5813 100.469 21.072C100.021 21.552 99.7974 22.2507 99.7974 23.168V28H98.3414V19.232H99.7974V20.496C100.085 20.0373 100.469 19.6853 100.949 19.44C101.44 19.1947 101.979 19.072 102.565 19.072C103.301 19.072 103.952 19.2373 104.517 19.568C105.083 19.8987 105.504 20.384 105.781 21.024C106.027 20.4053 106.432 19.9253 106.997 19.584C107.563 19.2427 108.192 19.072 108.885 19.072ZM122.826 23.28C122.826 23.5573 122.81 23.8507 122.778 24.16H115.77C115.823 25.024 116.116 25.7013 116.65 26.192C117.194 26.672 117.85 26.912 118.618 26.912C119.247 26.912 119.77 26.768 120.186 26.48C120.612 26.1813 120.911 25.7867 121.082 25.296H122.65C122.415 26.1387 121.946 26.8267 121.242 27.36C120.538 27.8827 119.663 28.144 118.618 28.144C117.786 28.144 117.039 27.9573 116.378 27.584C115.727 27.2107 115.215 26.6827 114.842 26C114.468 25.3067 114.282 24.5067 114.282 23.6C114.282 22.6933 114.463 21.8987 114.826 21.216C115.188 20.5333 115.695 20.0107 116.346 19.648C117.007 19.2747 117.764 19.088 118.618 19.088C119.45 19.088 120.186 19.2693 120.826 19.632C121.466 19.9947 121.956 20.496 122.298 21.136C122.65 21.7653 122.826 22.48 122.826 23.28ZM121.322 22.976C121.322 22.4213 121.199 21.9467 120.954 21.552C120.708 21.1467 120.372 20.8427 119.946 20.64C119.53 20.4267 119.066 20.32 118.554 20.32C117.818 20.32 117.188 20.5547 116.666 21.024C116.154 21.4933 115.86 22.144 115.786 22.976H121.322ZM129.02 19.072C130.086 19.072 130.95 19.3973 131.612 20.048C132.273 20.688 132.604 21.616 132.604 22.832V28H131.164V23.04C131.164 22.1653 130.945 21.4987 130.508 21.04C130.07 20.5707 129.473 20.336 128.716 20.336C127.948 20.336 127.334 20.576 126.876 21.056C126.428 21.536 126.204 22.2347 126.204 23.152V28H124.748V19.232H126.204V20.48C126.492 20.032 126.881 19.6853 127.372 19.44C127.873 19.1947 128.422 19.072 129.02 19.072ZM136.758 20.432V25.6C136.758 26.0267 136.849 26.3307 137.03 26.512C137.211 26.6827 137.526 26.768 137.974 26.768H139.046V28H137.734C136.923 28 136.315 27.8133 135.91 27.44C135.505 27.0667 135.302 26.4533 135.302 25.6V20.432H134.166V19.232H135.302V17.024H136.758V19.232H139.046V20.432H136.758Z" fill="#38B990"/>
</svg>
