<svg width="156" height="44" viewBox="0 0 156 44" fill="none" xmlns="http://www.w3.org/2000/svg">
<rect width="156" height="44" rx="12" fill="#DAF5ED"/>
<path d="M39.824 25.52H34.96L34.064 28H32.528L36.56 16.912H38.24L42.256 28H40.72L39.824 25.52ZM39.408 24.336L37.392 18.704L35.376 24.336H39.408ZM43.4693 23.6C43.4693 22.6933 43.6506 21.904 44.0133 21.232C44.3759 20.5493 44.8773 20.0213 45.5173 19.648C46.1679 19.2747 46.9093 19.088 47.7413 19.088C48.8186 19.088 49.7039 19.3493 50.3973 19.872C51.1013 20.3947 51.5653 21.12 51.7893 22.048H50.2213C50.0719 21.5147 49.7786 21.0933 49.3413 20.784C48.9146 20.4747 48.3813 20.32 47.7413 20.32C46.9093 20.32 46.2373 20.608 45.7253 21.184C45.2133 21.7493 44.9573 22.5547 44.9573 23.6C44.9573 24.656 45.2133 25.472 45.7253 26.048C46.2373 26.624 46.9093 26.912 47.7413 26.912C48.3813 26.912 48.9146 26.7627 49.3413 26.464C49.7679 26.1653 50.0613 25.7387 50.2213 25.184H51.7893C51.5546 26.08 51.0853 26.8 50.3813 27.344C49.6773 27.8773 48.7973 28.144 47.7413 28.144C46.9093 28.144 46.1679 27.9573 45.5173 27.584C44.8773 27.2107 44.3759 26.6827 44.0133 26C43.6506 25.3173 43.4693 24.5173 43.4693 23.6ZM53.188 23.6C53.188 22.6933 53.3693 21.904 53.732 21.232C54.0947 20.5493 54.596 20.0213 55.236 19.648C55.8867 19.2747 56.628 19.088 57.46 19.088C58.5373 19.088 59.4227 19.3493 60.116 19.872C60.82 20.3947 61.284 21.12 61.508 22.048H59.94C59.7907 21.5147 59.4973 21.0933 59.06 20.784C58.6333 20.4747 58.1 20.32 57.46 20.32C56.628 20.32 55.956 20.608 55.444 21.184C54.932 21.7493 54.676 22.5547 54.676 23.6C54.676 24.656 54.932 25.472 55.444 26.048C55.956 26.624 56.628 26.912 57.46 26.912C58.1 26.912 58.6333 26.7627 59.06 26.464C59.4867 26.1653 59.78 25.7387 59.94 25.184H61.508C61.2733 26.08 60.804 26.8 60.1 27.344C59.396 27.8773 58.516 28.144 57.46 28.144C56.628 28.144 55.8867 27.9573 55.236 27.584C54.596 27.2107 54.0947 26.6827 53.732 26C53.3693 25.3173 53.188 24.5173 53.188 23.6ZM67.2748 28.144C66.4534 28.144 65.7068 27.9573 65.0348 27.584C64.3734 27.2107 63.8508 26.6827 63.4668 26C63.0934 25.3067 62.9068 24.5067 62.9068 23.6C62.9068 22.704 63.0988 21.9147 63.4828 21.232C63.8774 20.5387 64.4108 20.0107 65.0828 19.648C65.7548 19.2747 66.5068 19.088 67.3388 19.088C68.1708 19.088 68.9228 19.2747 69.5948 19.648C70.2668 20.0107 70.7948 20.5333 71.1788 21.216C71.5734 21.8987 71.7708 22.6933 71.7708 23.6C71.7708 24.5067 71.5681 25.3067 71.1628 26C70.7681 26.6827 70.2294 27.2107 69.5468 27.584C68.8641 27.9573 68.1068 28.144 67.2748 28.144ZM67.2748 26.864C67.7974 26.864 68.2881 26.7413 68.7468 26.496C69.2054 26.2507 69.5734 25.8827 69.8508 25.392C70.1388 24.9013 70.2828 24.304 70.2828 23.6C70.2828 22.896 70.1441 22.2987 69.8668 21.808C69.5894 21.3173 69.2268 20.9547 68.7788 20.72C68.3308 20.4747 67.8454 20.352 67.3228 20.352C66.7894 20.352 66.2988 20.4747 65.8508 20.72C65.4134 20.9547 65.0614 21.3173 64.7948 21.808C64.5281 22.2987 64.3948 22.896 64.3948 23.6C64.3948 24.3147 64.5228 24.9173 64.7788 25.408C65.0454 25.8987 65.3974 26.2667 65.8348 26.512C66.2721 26.7467 66.7521 26.864 67.2748 26.864ZM81.4611 19.232V28H80.0051V26.704C79.7278 27.152 79.3385 27.504 78.8371 27.76C78.3465 28.0053 77.8025 28.128 77.2051 28.128C76.5225 28.128 75.9091 27.9893 75.3651 27.712C74.8211 27.424 74.3891 26.9973 74.0691 26.432C73.7598 25.8667 73.6051 25.1787 73.6051 24.368V19.232H75.0451V24.176C75.0451 25.04 75.2638 25.7067 75.7011 26.176C76.1385 26.6347 76.7358 26.864 77.4931 26.864C78.2718 26.864 78.8851 26.624 79.3331 26.144C79.7811 25.664 80.0051 24.9653 80.0051 24.048V19.232H81.4611ZM88.1915 19.072C89.2582 19.072 90.1222 19.3973 90.7835 20.048C91.4448 20.688 91.7755 21.616 91.7755 22.832V28H90.3355V23.04C90.3355 22.1653 90.1168 21.4987 89.6795 21.04C89.2422 20.5707 88.6448 20.336 87.8875 20.336C87.1195 20.336 86.5062 20.576 86.0475 21.056C85.5995 21.536 85.3755 22.2347 85.3755 23.152V28H83.9195V19.232H85.3755V20.48C85.6635 20.032 86.0528 19.6853 86.5435 19.44C87.0448 19.1947 87.5942 19.072 88.1915 19.072ZM95.9299 20.432V25.6C95.9299 26.0267 96.0205 26.3307 96.2019 26.512C96.3832 26.6827 96.6979 26.768 97.1459 26.768H98.2179V28H96.9059C96.0952 28 95.4872 27.8133 95.0819 27.44C94.6765 27.0667 94.4739 26.4533 94.4739 25.6V20.432H93.3379V19.232H94.4739V17.024H95.9299V19.232H98.2179V20.432H95.9299ZM100.734 17.808C100.457 17.808 100.222 17.712 100.03 17.52C99.838 17.328 99.742 17.0933 99.742 16.816C99.742 16.5387 99.838 16.304 100.03 16.112C100.222 15.92 100.457 15.824 100.734 15.824C101.001 15.824 101.225 15.92 101.406 16.112C101.598 16.304 101.694 16.5387 101.694 16.816C101.694 17.0933 101.598 17.328 101.406 17.52C101.225 17.712 101.001 17.808 100.734 17.808ZM101.438 19.232V28H99.982V19.232H101.438ZM108.192 19.072C109.258 19.072 110.122 19.3973 110.784 20.048C111.445 20.688 111.776 21.616 111.776 22.832V28H110.336V23.04C110.336 22.1653 110.117 21.4987 109.68 21.04C109.242 20.5707 108.645 20.336 107.888 20.336C107.12 20.336 106.506 20.576 106.048 21.056C105.6 21.536 105.376 22.2347 105.376 23.152V28H103.92V19.232H105.376V20.48C105.664 20.032 106.053 19.6853 106.544 19.44C107.045 19.1947 107.594 19.072 108.192 19.072ZM117.77 19.088C118.527 19.088 119.189 19.2533 119.754 19.584C120.33 19.9147 120.757 20.3307 121.034 20.832V19.232H122.506V28.192C122.506 28.992 122.335 29.7013 121.994 30.32C121.653 30.9493 121.162 31.44 120.522 31.792C119.893 32.144 119.157 32.32 118.314 32.32C117.162 32.32 116.202 32.048 115.434 31.504C114.666 30.96 114.213 30.2187 114.074 29.28H115.514C115.674 29.8133 116.005 30.24 116.506 30.56C117.007 30.8907 117.61 31.056 118.314 31.056C119.114 31.056 119.765 30.8053 120.266 30.304C120.778 29.8027 121.034 29.0987 121.034 28.192V26.352C120.746 26.864 120.319 27.2907 119.754 27.632C119.189 27.9733 118.527 28.144 117.77 28.144C116.991 28.144 116.282 27.952 115.642 27.568C115.013 27.184 114.517 26.6453 114.154 25.952C113.791 25.2587 113.61 24.4693 113.61 23.584C113.61 22.688 113.791 21.904 114.154 21.232C114.517 20.5493 115.013 20.0213 115.642 19.648C116.282 19.2747 116.991 19.088 117.77 19.088ZM121.034 23.6C121.034 22.9387 120.901 22.3627 120.634 21.872C120.367 21.3813 120.005 21.008 119.546 20.752C119.098 20.4853 118.602 20.352 118.058 20.352C117.514 20.352 117.018 20.48 116.57 20.736C116.122 20.992 115.765 21.3653 115.498 21.856C115.231 22.3467 115.098 22.9227 115.098 23.584C115.098 24.256 115.231 24.8427 115.498 25.344C115.765 25.8347 116.122 26.2133 116.57 26.48C117.018 26.736 117.514 26.864 118.058 26.864C118.602 26.864 119.098 26.736 119.546 26.48C120.005 26.2133 120.367 25.8347 120.634 25.344C120.901 24.8427 121.034 24.2613 121.034 23.6Z" fill="#38B990"/>
</svg>
