<svg width="33" height="34" viewBox="0 0 33 34" fill="none" xmlns="http://www.w3.org/2000/svg">
<path d="M16.5 33.2451C25.6127 33.2451 33 25.8578 33 16.7451C33 7.63242 25.6127 0.245117 16.5 0.245117C7.3873 0.245117 0 7.63242 0 16.7451C0 25.8578 7.3873 33.2451 16.5 33.2451Z" fill="#3C5A9A"/>
<path d="M21.8634 5.30957H18.2083C16.0392 5.30957 13.6265 6.22186 13.6265 9.36605C13.6371 10.4616 13.6265 11.5108 13.6265 12.6917H11.1172V16.6848H13.7042V28.1802H18.4579V16.6089H21.5956L21.8794 12.6804H18.376C18.376 12.6804 18.3839 10.9329 18.376 10.4254C18.376 9.1829 19.6689 9.25405 19.7467 9.25405C20.3619 9.25405 21.5581 9.25584 21.8652 9.25405V5.30957H21.8634Z" fill="white"/>
</svg>
