<svg width="11" height="15" viewBox="0 0 11 15" fill="none" xmlns="http://www.w3.org/2000/svg">
<path d="M5.49996 7.14579C5.03031 7.14579 4.57989 6.95922 4.24779 6.62713C3.9157 6.29503 3.72913 5.84461 3.72913 5.37496C3.72913 4.9053 3.9157 4.45489 4.24779 4.12279C4.57989 3.7907 5.03031 3.60413 5.49996 3.60413C5.96961 3.60413 6.42003 3.7907 6.75213 4.12279C7.08422 4.45489 7.27079 4.9053 7.27079 5.37496C7.27079 5.60751 7.22499 5.83778 7.136 6.05263C7.047 6.26748 6.91656 6.46269 6.75213 6.62713C6.58769 6.79156 6.39248 6.922 6.17763 7.011C5.96278 7.09999 5.73251 7.14579 5.49996 7.14579ZM5.49996 0.416626C4.18493 0.416626 2.92376 0.93902 1.99389 1.86889C1.06402 2.79876 0.541626 4.05993 0.541626 5.37496C0.541626 9.09371 5.49996 14.5833 5.49996 14.5833C5.49996 14.5833 10.4583 9.09371 10.4583 5.37496C10.4583 4.05993 9.9359 2.79876 9.00603 1.86889C8.07616 0.93902 6.81499 0.416626 5.49996 0.416626Z" fill="#121212"/>
</svg>
