<svg width="16" height="10" viewBox="0 0 16 10" fill="none" xmlns="http://www.w3.org/2000/svg">
<path d="M15.2866 1.95275L8.23698 9.00236C8.18394 9.05805 8.12014 9.10239 8.04945 9.13268C7.97877 9.16298 7.90266 9.1786 7.82575 9.1786C7.74885 9.1786 7.67274 9.16298 7.60205 9.13268C7.53137 9.10239 7.46757 9.05805 7.41453 9.00236L0.364916 1.95275C0.255852 1.84369 0.19458 1.69576 0.19458 1.54152C0.19458 1.38728 0.255852 1.23936 0.364916 1.1303C0.47398 1.02123 0.621903 0.959961 0.776143 0.959961C0.930384 0.959961 1.07831 1.02123 1.18737 1.1303L7.23829 7.17142L7.12811 7.4767C7.12811 7.32089 7.19001 7.17147 7.30018 7.0613C7.41035 6.95113 7.55978 6.88923 7.71558 6.88923C7.87139 6.88923 8.02081 6.95113 8.13098 7.0613C8.24116 7.17147 8.30305 7.32089 8.30305 7.4767L8.41322 7.17142L14.4641 1.1303C14.5732 1.02123 14.7211 0.959961 14.8754 0.959961C15.0296 0.959961 15.1775 1.02123 15.2866 1.1303C15.3957 1.23936 15.4569 1.38728 15.4569 1.54152C15.4569 1.69576 15.3957 1.84369 15.2866 1.95275Z" fill="#6B6B6B"/>
</svg>
