<svg width="98" height="97" viewBox="0 0 98 97" fill="none" xmlns="http://www.w3.org/2000/svg">
<path d="M48.5699 1.03987C48.683 0.513174 49.4345 0.513174 49.5476 1.03987L57.6062 38.5676C57.7301 39.1446 58.1808 39.5954 58.7578 39.7193L96.2856 47.7779C96.8123 47.891 96.8123 48.6425 96.2856 48.7556L58.7578 56.8142C58.1808 56.9381 57.7301 57.3888 57.6062 57.9658L49.5476 95.4936C49.4345 96.0203 48.683 96.0203 48.5699 95.4936L40.5113 57.9658C40.3874 57.3888 39.9366 56.9381 39.3596 56.8142L1.83187 48.7556C1.30517 48.6425 1.30517 47.891 1.83187 47.7779L39.3596 39.7193C39.9366 39.5954 40.3874 39.1446 40.5113 38.5676L48.5699 1.03987Z" stroke="#22B691"/>
</svg>
