<svg width="391" height="44" viewBox="0 0 391 44" fill="none" xmlns="http://www.w3.org/2000/svg">
<rect x="0.553955" y="0.0693359" width="390.359" height="43" rx="10" fill="#EFEFEF"/>
<path d="M97.4096 27.2133C94.2576 27.2133 92.3216 25.2453 92.3216 22.2053C92.3216 18.4613 94.8176 15.4533 98.4016 15.4533C100.706 15.4533 102.498 16.7333 102.658 19.1973H101.346C101.074 17.4693 100.162 16.5573 98.3376 16.5573C95.4576 16.5573 93.7616 19.0533 93.7616 22.2053C93.7616 24.6693 94.9776 26.0933 97.4256 26.0933C99.2656 26.0933 100.482 24.9573 101.01 23.2773H102.338C101.73 25.6933 99.8256 27.2133 97.4096 27.2133ZM103.255 27.0693L105.207 14.7013H106.551L104.599 27.0693H103.255ZM109.236 16.9573C108.756 16.9573 108.356 16.5733 108.356 16.0933C108.356 15.6133 108.772 15.1973 109.252 15.1973C109.732 15.1973 110.116 15.5813 110.116 16.0613C110.116 16.5413 109.716 16.9573 109.236 16.9573ZM106.868 27.0693L108.196 18.7013H109.524L108.196 27.0693H106.868ZM114.29 27.1973C111.778 27.1973 110.386 25.6293 110.386 23.3893C110.386 20.3013 112.45 18.5733 114.722 18.5733C116.562 18.5733 118.002 19.4853 118.114 21.5173H116.85C116.69 20.0773 115.826 19.6773 114.658 19.6773C112.994 19.6773 111.746 20.9733 111.746 23.3893C111.746 25.1493 112.61 26.1093 114.322 26.1093C115.49 26.1093 116.514 25.3893 116.738 24.0933H117.986C117.634 26.0773 116.146 27.1973 114.29 27.1973ZM118.814 27.0693L120.766 14.7013H122.094L120.878 22.3973L124.862 18.7013H126.51L122.286 22.5413L125.406 27.0693H123.886L120.846 22.6053L120.142 27.0693H118.814ZM130.356 27.0693L132.164 15.6293H133.556L132.724 20.8133H138.74L139.572 15.6293H140.964L139.156 27.0693H137.764L138.564 21.9813H132.548L131.748 27.0693H130.356ZM142.764 23.6933C142.764 25.2133 143.468 26.1093 145.068 26.1093C146.236 26.1093 147.052 25.6133 147.372 24.6533H148.7C148.188 26.3813 146.716 27.2133 145.02 27.2133C142.748 27.2133 141.404 25.7253 141.404 23.6293C141.404 20.6693 143.308 18.5733 145.772 18.5733C148.044 18.5733 149.468 19.9813 149.02 22.8453L148.972 23.1493H142.78C142.764 23.3253 142.764 23.5013 142.764 23.6933ZM145.692 19.6613C144.508 19.6613 143.356 20.3653 142.94 22.0773H147.788C147.916 20.3973 147.212 19.6613 145.692 19.6613ZM149.831 27.0693L150.759 21.1973C150.935 20.0613 150.967 19.4053 150.983 18.7013H152.231C152.231 19.1653 152.199 19.7733 152.135 20.4133C152.839 19.3093 153.575 18.5893 155.223 18.5573L155.031 19.8053C153.351 19.8853 152.183 20.5893 151.847 22.7173L151.159 27.0693H149.831ZM156.554 23.6933C156.554 25.2133 157.258 26.1093 158.858 26.1093C160.026 26.1093 160.842 25.6133 161.162 24.6533H162.49C161.978 26.3813 160.506 27.2133 158.81 27.2133C156.538 27.2133 155.194 25.7253 155.194 23.6293C155.194 20.6693 157.098 18.5733 159.562 18.5733C161.834 18.5733 163.258 19.9813 162.81 22.8453L162.762 23.1493H156.57C156.554 23.3253 156.554 23.5013 156.554 23.6933ZM159.482 19.6613C158.298 19.6613 157.146 20.3653 156.73 22.0773H161.578C161.706 20.3973 161.002 19.6613 159.482 19.6613ZM169.808 27.0693L171.424 16.7653H168.096L168.288 15.6293H176.336L176.144 16.7653H172.816L171.2 27.0693H169.808ZM178.403 27.1973C176.083 27.1973 174.675 25.6133 174.675 23.4853C174.675 20.6853 176.611 18.5733 179.123 18.5733C181.443 18.5733 182.867 20.0933 182.867 22.2533C182.867 25.1013 181.027 27.1973 178.403 27.1973ZM178.467 26.1093C180.355 26.1093 181.475 24.4613 181.475 22.2853C181.475 20.7013 180.643 19.6613 179.043 19.6613C177.251 19.6613 176.051 21.3093 176.051 23.4853C176.051 25.0693 176.835 26.1093 178.467 26.1093ZM191.964 27.2133C189.084 27.2133 187.644 25.6293 188.14 22.5413L189.244 15.6293H190.636L189.532 22.5573C189.132 25.1013 190.012 26.0613 192.028 26.0613C193.74 26.0613 194.78 25.1973 195.148 22.8933L196.3 15.6293H197.692L196.508 23.0853C196.108 25.5813 194.716 27.2133 191.964 27.2133ZM203.362 18.5573C205.314 18.5573 206.722 19.9973 206.722 22.2373C206.722 24.9253 205.17 27.2133 202.546 27.2133C200.85 27.2133 199.97 26.3173 199.602 25.5013L198.882 29.9813H197.554L198.946 21.1973C199.122 20.0613 199.154 19.4053 199.17 18.7013H200.418C200.418 19.1653 200.386 19.8053 200.322 20.3333C200.914 19.2613 202.13 18.5573 203.362 18.5573ZM202.466 26.1253C204.29 26.1253 205.314 24.4933 205.314 22.3173C205.314 20.6053 204.466 19.6453 203.106 19.6453C201.298 19.6453 199.89 21.1173 199.89 23.5173C199.89 25.1333 200.882 26.1253 202.466 26.1253ZM207.601 27.0693L209.553 14.7013H210.897L208.945 27.0693H207.601ZM214.847 27.1973C212.527 27.1973 211.119 25.6133 211.119 23.4853C211.119 20.6853 213.055 18.5733 215.567 18.5733C217.887 18.5733 219.311 20.0933 219.311 22.2533C219.311 25.1013 217.471 27.1973 214.847 27.1973ZM214.911 26.1093C216.799 26.1093 217.919 24.4613 217.919 22.2853C217.919 20.7013 217.087 19.6613 215.487 19.6613C213.695 19.6613 212.495 21.3093 212.495 23.4853C212.495 25.0693 213.279 26.1093 214.911 26.1093ZM222.683 27.1973C220.971 27.1973 219.979 26.2533 219.979 24.8293C219.979 22.7653 221.851 22.1573 224.043 22.1573H225.659L225.755 21.5493C225.963 20.2693 225.531 19.6613 224.187 19.6613C223.099 19.6613 222.411 20.1253 222.187 21.1653H220.859C221.243 19.1653 222.891 18.5573 224.235 18.5573C226.107 18.5573 227.419 19.4053 227.067 21.6613L226.603 24.5733C226.427 25.6613 226.379 26.3653 226.459 27.0693H225.211C225.163 26.6213 225.163 26.1093 225.195 25.7413C224.603 26.7013 223.691 27.1973 222.683 27.1973ZM222.859 26.1573C224.107 26.1573 225.131 25.4693 225.355 24.0133L225.499 23.1013H224.075C222.203 23.1013 221.291 23.5493 221.291 24.8293C221.291 25.5653 221.787 26.1573 222.859 26.1573ZM231.837 27.2133C229.757 27.2133 228.301 25.7733 228.301 23.5173C228.301 20.8453 229.949 18.5573 232.637 18.5573C234.237 18.5573 235.053 19.4213 235.437 20.2213L236.301 14.7013H237.629L236.077 24.5733C235.901 25.7093 235.869 26.3813 235.901 27.0693H234.637C234.605 26.5893 234.637 26.0293 234.701 25.5493C234.109 26.5413 233.069 27.2133 231.837 27.2133ZM231.997 26.1093C233.773 26.1093 235.133 24.8133 235.133 22.2213C235.133 20.6373 234.109 19.6613 232.685 19.6613C230.797 19.6613 229.709 21.2773 229.709 23.4533C229.709 25.1173 230.557 26.1093 231.997 26.1093ZM244.36 27.0693L245.144 22.0773L242.344 15.6293H243.832L246.04 20.9413L249.752 15.6293H251.176L246.52 22.1893L245.752 27.0693H244.36ZM253.26 27.1973C250.94 27.1973 249.532 25.6133 249.532 23.4853C249.532 20.6853 251.468 18.5733 253.98 18.5733C256.3 18.5733 257.724 20.0933 257.724 22.2533C257.724 25.1013 255.884 27.1973 253.26 27.1973ZM253.324 26.1093C255.212 26.1093 256.332 24.4613 256.332 22.2853C256.332 20.7013 255.5 19.6613 253.9 19.6613C252.108 19.6613 250.908 21.3093 250.908 23.4853C250.908 25.0693 251.692 26.1093 253.324 26.1093ZM266.586 18.7013L265.658 24.5733C265.482 25.7093 265.45 26.3813 265.482 27.0693H264.218C264.186 26.5893 264.218 25.9653 264.298 25.4053C263.706 26.4133 262.746 27.2133 261.386 27.2133C259.642 27.2133 258.602 26.1413 258.986 23.7093L259.786 18.7013H261.114L260.266 24.0133C260.058 25.3253 260.522 26.0773 261.674 26.0773C263.066 26.0773 264.234 25.1493 264.49 23.5653L265.258 18.7013H266.586ZM267.464 27.0693L268.392 21.1973C268.568 20.0613 268.6 19.4053 268.616 18.7013H269.864C269.864 19.1653 269.832 19.7733 269.768 20.4133C270.472 19.3093 271.208 18.5893 272.856 18.5573L272.664 19.8053C270.984 19.8853 269.816 20.5893 269.48 22.7173L268.792 27.0693H267.464ZM282.227 27.2133C279.075 27.2133 277.139 25.2453 277.139 22.2053C277.139 18.4613 279.635 15.4533 283.219 15.4533C285.523 15.4533 287.315 16.7333 287.475 19.1973H286.163C285.891 17.4693 284.979 16.5573 283.155 16.5573C280.275 16.5573 278.579 19.0533 278.579 22.2053C278.579 24.6693 279.795 26.0933 282.243 26.0933C284.083 26.0933 285.299 24.9573 285.827 23.2773H287.155C286.547 25.6933 284.643 27.2133 282.227 27.2133ZM290.607 27.0693L288.527 15.6293H289.887L291.695 25.7253L296.703 15.6293H298.031L292.271 27.0693H290.607ZM296.959 27.1493C296.399 27.1493 295.935 26.7013 295.935 26.1253C295.935 25.5493 296.383 25.1013 296.943 25.1013C297.503 25.1013 297.983 25.5493 297.983 26.1253C297.983 26.7013 297.519 27.1493 296.959 27.1493Z" fill="#6B6B6B"/>
</svg>
