<svg width="33" height="34" viewBox="0 0 33 34" fill="none" xmlns="http://www.w3.org/2000/svg">
<path d="M16.5 0.245117C7.38723 0.245117 0 7.63234 0 16.7451C0 25.8578 7.38723 33.245 16.5 33.245C25.6127 33.245 33 25.8578 33 16.7451C32.9999 7.63234 25.6126 0.245117 16.5 0.245117ZM12.0977 24.7221H8.47501V13.018H12.0977V24.7221ZM10.2691 11.4853C9.08597 11.4853 8.12682 10.5183 8.12682 9.32572C8.12682 8.13296 9.0861 7.16606 10.2691 7.16606C11.4521 7.16606 12.4113 8.13296 12.4113 9.32572C12.4113 10.5184 11.4522 11.4853 10.2691 11.4853ZM25.6739 24.7221H22.0688V18.5784C22.0688 16.8934 21.4287 15.9528 20.0963 15.9528C18.6462 15.9528 17.8887 16.9324 17.8887 18.5784V24.7221H14.4141V13.018H17.8887V14.5944C17.8887 14.5944 18.9339 12.661 21.4156 12.661C23.8974 12.661 25.674 14.1764 25.674 17.3112L25.6739 24.7221Z" fill="url(#paint0_linear_1_3529)"/>
<defs>
<linearGradient id="paint0_linear_1_3529" x1="4.83272" y1="5.07784" x2="28.1672" y2="28.4123" gradientUnits="userSpaceOnUse">
<stop stop-color="#2489BE"/>
<stop offset="1" stop-color="#0575B3"/>
</linearGradient>
</defs>
</svg>
