<svg width="37" height="36" viewBox="0 0 37 36" fill="none" xmlns="http://www.w3.org/2000/svg">
<path d="M0.760002 18.3263C0.760002 14.6372 0.760002 10.9482 0.760002 7.25945C0.760002 6.11343 0.930044 4.99179 1.45493 3.95742C2.2044 2.48158 3.42614 1.59094 5.01941 1.19824C5.68546 1.03333 6.36692 0.985204 7.05222 0.985846C12.8131 0.991407 18.5743 0.992477 24.3356 0.989054C24.8554 0.989054 24.8554 0.989055 24.8554 1.5056C24.8554 3.37671 24.8252 5.24782 24.865 7.11829C24.9003 8.79561 23.8916 9.57653 22.4048 9.6362C21.8915 9.65673 21.3749 9.64133 20.8597 9.64133H10.3594C9.89995 9.64133 9.89867 9.64133 9.89867 10.0905C9.89867 15.5139 9.89867 20.9373 9.89867 26.3607C9.89867 26.7803 9.90573 26.788 10.3183 26.788H26.7823C27.1943 26.788 27.2007 26.7803 27.2007 26.3594C27.2007 22.5231 27.2007 18.6867 27.2007 14.8504C27.2007 14.5456 27.2254 14.2413 27.2745 13.9405C27.4561 12.7984 28.1356 12.1612 29.3464 11.986C29.6583 11.9398 29.9731 11.9166 30.2884 11.9167C32.1281 11.9212 33.9677 11.925 35.8068 11.9128C36.1199 11.9128 36.2226 12.0001 36.2226 12.3222C36.2136 18.019 36.2296 23.7157 36.2065 29.4118C36.2001 30.9069 35.629 32.2416 34.637 33.344C33.4088 34.7139 31.8406 35.4114 29.9791 35.4442C23.7665 35.552 17.5538 35.4936 11.3411 35.4801C10.018 35.4769 8.69297 35.441 7.36921 35.448C5.46601 35.4589 3.89264 34.7287 2.51112 33.4588C1.26435 32.3096 0.750377 30.8967 0.756152 29.236C0.768343 25.5977 0.760002 21.9633 0.760002 18.3263Z" fill="#38B990"/>
</svg>
