<svg width="441" height="33" viewBox="0 0 441 33" fill="none" xmlns="http://www.w3.org/2000/svg">
<rect y="0.245117" width="60" height="32" rx="5" fill="#01C096"/>
<path d="M24.65 16.1631C25.098 16.3778 25.4527 16.6858 25.714 17.0871C25.9847 17.4885 26.12 17.9505 26.12 18.4731C26.12 19.2571 25.8447 19.9151 25.294 20.4471C24.7433 20.9791 24.0713 21.2451 23.278 21.2451H19.05V11.4451H22.97C23.7353 11.4451 24.384 11.7018 24.916 12.2151C25.448 12.7285 25.714 13.3631 25.714 14.1191C25.714 14.9871 25.3593 15.6685 24.65 16.1631ZM22.97 12.6631H20.352V15.6591H22.97C23.3807 15.6591 23.726 15.5145 24.006 15.2251C24.286 14.9358 24.426 14.5811 24.426 14.1611C24.426 13.7505 24.2813 13.4005 23.992 13.1111C23.712 12.8125 23.3713 12.6631 22.97 12.6631ZM23.278 20.0271C23.7167 20.0271 24.0853 19.8731 24.384 19.5651C24.6827 19.2571 24.832 18.8791 24.832 18.4311C24.832 17.9925 24.678 17.6191 24.37 17.3111C24.0713 17.0031 23.7073 16.8491 23.278 16.8491H20.352V20.0271H23.278ZM30.6769 21.4271C29.7622 21.4271 28.9782 21.2125 28.3249 20.7831C27.6809 20.3538 27.2282 19.7658 26.9669 19.0191L28.0869 18.3751C28.4696 19.5605 29.3422 20.1531 30.7049 20.1531C31.3769 20.1531 31.8902 20.0178 32.2449 19.7471C32.5996 19.4671 32.7769 19.0985 32.7769 18.6411C32.7769 18.1745 32.5996 17.8245 32.2449 17.5911C31.8902 17.3578 31.2976 17.1105 30.4669 16.8491C30.0562 16.7185 29.7436 16.6158 29.5289 16.5411C29.3142 16.4571 29.0436 16.3358 28.7169 16.1771C28.3996 16.0091 28.1616 15.8411 28.0029 15.6731C27.8442 15.4958 27.6996 15.2671 27.5689 14.9871C27.4476 14.7071 27.3869 14.3898 27.3869 14.0351C27.3869 13.1858 27.6856 12.5138 28.2829 12.0191C28.8802 11.5151 29.6082 11.2631 30.4669 11.2631C31.2416 11.2631 31.9136 11.4591 32.4829 11.8511C33.0616 12.2431 33.4956 12.7611 33.7849 13.4051L32.6929 14.0351C32.2729 13.0271 31.5309 12.5231 30.4669 12.5231C29.9349 12.5231 29.5056 12.6538 29.1789 12.9151C28.8522 13.1765 28.6889 13.5311 28.6889 13.9791C28.6889 14.4085 28.8429 14.7351 29.1509 14.9591C29.4589 15.1831 29.9909 15.4165 30.7469 15.6591C31.0176 15.7431 31.2089 15.8038 31.3209 15.8411C31.4329 15.8785 31.6056 15.9438 31.8389 16.0371C32.0816 16.1305 32.2589 16.2051 32.3709 16.2611C32.4829 16.3171 32.6322 16.3965 32.8189 16.4991C33.0149 16.6018 33.1596 16.6998 33.2529 16.7931C33.3462 16.8865 33.4536 17.0031 33.5749 17.1431C33.7056 17.2738 33.7989 17.4091 33.8549 17.5491C33.9109 17.6891 33.9576 17.8525 33.9949 18.0391C34.0416 18.2165 34.0649 18.4078 34.0649 18.6131C34.0649 19.4718 33.7522 20.1578 33.1269 20.6711C32.5016 21.1751 31.6849 21.4271 30.6769 21.4271ZM36.8403 20.0131H41.3903V21.2451H35.5383V11.4451H41.3203V12.6771H36.8403V15.6871H40.9703V16.9051H36.8403V20.0131Z" fill="white"/>
<rect x="70" y="0.245117" width="61" height="32" rx="5" fill="#01C096"/>
<path d="M95.14 11.4451H96.442V21.2451H95.392L90.352 13.9231V21.2451H89.05V11.4451H90.1L95.14 18.7531V11.4451ZM101.552 21.4271C100.637 21.4271 99.8532 21.2125 99.1999 20.7831C98.5559 20.3538 98.1032 19.7658 97.8419 19.0191L98.9619 18.3751C99.3446 19.5605 100.217 20.1531 101.58 20.1531C102.252 20.1531 102.765 20.0178 103.12 19.7471C103.475 19.4671 103.652 19.0985 103.652 18.6411C103.652 18.1745 103.475 17.8245 103.12 17.5911C102.765 17.3578 102.173 17.1105 101.342 16.8491C100.931 16.7185 100.619 16.6158 100.404 16.5411C100.189 16.4571 99.9186 16.3358 99.5919 16.1771C99.2746 16.0091 99.0366 15.8411 98.8779 15.6731C98.7192 15.4958 98.5746 15.2671 98.4439 14.9871C98.3226 14.7071 98.2619 14.3898 98.2619 14.0351C98.2619 13.1858 98.5606 12.5138 99.1579 12.0191C99.7552 11.5151 100.483 11.2631 101.342 11.2631C102.117 11.2631 102.789 11.4591 103.358 11.8511C103.937 12.2431 104.371 12.7611 104.66 13.4051L103.568 14.0351C103.148 13.0271 102.406 12.5231 101.342 12.5231C100.81 12.5231 100.381 12.6538 100.054 12.9151C99.7272 13.1765 99.5639 13.5311 99.5639 13.9791C99.5639 14.4085 99.7179 14.7351 100.026 14.9591C100.334 15.1831 100.866 15.4165 101.622 15.6591C101.893 15.7431 102.084 15.8038 102.196 15.8411C102.308 15.8785 102.481 15.9438 102.714 16.0371C102.957 16.1305 103.134 16.2051 103.246 16.2611C103.358 16.3171 103.507 16.3965 103.694 16.4991C103.89 16.6018 104.035 16.6998 104.128 16.7931C104.221 16.8865 104.329 17.0031 104.45 17.1431C104.581 17.2738 104.674 17.4091 104.73 17.5491C104.786 17.6891 104.833 17.8525 104.87 18.0391C104.917 18.2165 104.94 18.4078 104.94 18.6131C104.94 19.4718 104.627 20.1578 104.002 20.6711C103.377 21.1751 102.56 21.4271 101.552 21.4271ZM107.715 20.0131H112.265V21.2451H106.413V11.4451H112.195V12.6771H107.715V15.6871H111.845V16.9051H107.715V20.0131Z" fill="white"/>
<rect x="141" y="0.245117" width="62" height="32" rx="5" fill="#01C096"/>
<path d="M165.22 11.4451V21.2451H163.932V13.5871L160.726 18.9211H160.558L157.352 13.6011V21.2451H156.05V11.4451H157.52L160.642 16.6251L163.75 11.4451H165.22ZM170.329 21.4271C169.415 21.4271 168.631 21.2125 167.977 20.7831C167.333 20.3538 166.881 19.7658 166.619 19.0191L167.739 18.3751C168.122 19.5605 168.995 20.1531 170.357 20.1531C171.029 20.1531 171.543 20.0178 171.897 19.7471C172.252 19.4671 172.429 19.0985 172.429 18.6411C172.429 18.1745 172.252 17.8245 171.897 17.5911C171.543 17.3578 170.95 17.1105 170.119 16.8491C169.709 16.7185 169.396 16.6158 169.181 16.5411C168.967 16.4571 168.696 16.3358 168.369 16.1771C168.052 16.0091 167.814 15.8411 167.655 15.6731C167.497 15.4958 167.352 15.2671 167.221 14.9871C167.1 14.7071 167.039 14.3898 167.039 14.0351C167.039 13.1858 167.338 12.5138 167.935 12.0191C168.533 11.5151 169.261 11.2631 170.119 11.2631C170.894 11.2631 171.566 11.4591 172.135 11.8511C172.714 12.2431 173.148 12.7611 173.437 13.4051L172.345 14.0351C171.925 13.0271 171.183 12.5231 170.119 12.5231C169.587 12.5231 169.158 12.6538 168.831 12.9151C168.505 13.1765 168.341 13.5311 168.341 13.9791C168.341 14.4085 168.495 14.7351 168.803 14.9591C169.111 15.1831 169.643 15.4165 170.399 15.6591C170.67 15.7431 170.861 15.8038 170.973 15.8411C171.085 15.8785 171.258 15.9438 171.491 16.0371C171.734 16.1305 171.911 16.2051 172.023 16.2611C172.135 16.3171 172.285 16.3965 172.471 16.4991C172.667 16.6018 172.812 16.6998 172.905 16.7931C172.999 16.8865 173.106 17.0031 173.227 17.1431C173.358 17.2738 173.451 17.4091 173.507 17.5491C173.563 17.6891 173.61 17.8525 173.647 18.0391C173.694 18.2165 173.717 18.4078 173.717 18.6131C173.717 19.4718 173.405 20.1578 172.779 20.6711C172.154 21.1751 171.337 21.4271 170.329 21.4271ZM176.493 20.0131H181.043V21.2451H175.191V11.4451H180.973V12.6771H176.493V15.6871H180.623V16.9051H176.493V20.0131ZM182.614 11.4451H183.916V21.2451H182.614V11.4451Z" fill="white"/>
<rect x="213" y="0.245117" width="62" height="32" rx="5" fill="#01C096"/>
<path d="M238.22 11.4451V21.2451H236.932V13.5871L233.726 18.9211H233.558L230.352 13.6011V21.2451H229.05V11.4451H230.52L233.642 16.6251L236.75 11.4451H238.22ZM244.922 21.4271C243.438 21.4271 242.21 20.9371 241.24 19.9571C240.278 18.9771 239.798 17.7731 239.798 16.3451C239.798 14.9171 240.278 13.7131 241.24 12.7331C242.21 11.7531 243.438 11.2631 244.922 11.2631C245.818 11.2631 246.639 11.4778 247.386 11.9071C248.142 12.3364 248.73 12.9151 249.15 13.6431L248.016 14.3011C247.736 13.7598 247.316 13.3305 246.756 13.0131C246.205 12.6865 245.594 12.5231 244.922 12.5231C243.792 12.5231 242.868 12.8871 242.15 13.6151C241.44 14.3431 241.086 15.2531 241.086 16.3451C241.086 17.4278 241.44 18.3331 242.15 19.0611C242.868 19.7891 243.792 20.1531 244.922 20.1531C245.594 20.1531 246.205 19.9945 246.756 19.6771C247.316 19.3505 247.736 18.9211 248.016 18.3891L249.15 19.0331C248.739 19.7611 248.156 20.3445 247.4 20.7831C246.644 21.2125 245.818 21.4271 244.922 21.4271ZM257.487 21.2451H256.003L253.595 17.3811L251.187 21.2451H249.717L252.867 16.2051L249.899 11.4451H251.369L253.595 15.0151L255.821 11.4451H257.291L254.337 16.1911L257.487 21.2451Z" fill="white"/>
<rect x="285" y="0.245117" width="62" height="32" rx="5" fill="#01C096"/>
<path d="M303.656 21.4271C302.172 21.4271 300.945 20.9371 299.974 19.9571C299.013 18.9771 298.532 17.7731 298.532 16.3451C298.532 14.9171 299.013 13.7131 299.974 12.7331C300.945 11.7531 302.172 11.2631 303.656 11.2631C304.552 11.2631 305.373 11.4778 306.12 11.9071C306.876 12.3364 307.464 12.9151 307.884 13.6431L306.75 14.3011C306.47 13.7598 306.05 13.3305 305.49 13.0131C304.939 12.6865 304.328 12.5231 303.656 12.5231C302.527 12.5231 301.603 12.8871 300.884 13.6151C300.175 14.3431 299.82 15.2531 299.82 16.3451C299.82 17.4278 300.175 18.3331 300.884 19.0611C301.603 19.7891 302.527 20.1531 303.656 20.1531C304.328 20.1531 304.939 19.9945 305.49 19.6771C306.05 19.3505 306.47 18.9211 306.75 18.3891L307.884 19.0331C307.473 19.7611 306.89 20.3445 306.134 20.7831C305.378 21.2125 304.552 21.4271 303.656 21.4271ZM313.181 11.4451C314.515 11.4451 315.621 11.9211 316.499 12.8731C317.385 13.8158 317.829 14.9731 317.829 16.3451C317.829 17.7171 317.385 18.8791 316.499 19.8311C315.621 20.7738 314.515 21.2451 313.181 21.2451H309.359V11.4451H313.181ZM313.181 20.0131C314.179 20.0131 314.996 19.6631 315.631 18.9631C316.265 18.2631 316.583 17.3905 316.583 16.3451C316.583 15.2998 316.265 14.4271 315.631 13.7271C314.996 13.0271 314.179 12.6771 313.181 12.6771H310.661V20.0131H313.181ZM322.216 21.4271C321.301 21.4271 320.517 21.2125 319.864 20.7831C319.22 20.3538 318.767 19.7658 318.506 19.0191L319.626 18.3751C320.009 19.5605 320.881 20.1531 322.244 20.1531C322.916 20.1531 323.429 20.0178 323.784 19.7471C324.139 19.4671 324.316 19.0985 324.316 18.6411C324.316 18.1745 324.139 17.8245 323.784 17.5911C323.429 17.3578 322.837 17.1105 322.006 16.8491C321.595 16.7185 321.283 16.6158 321.068 16.5411C320.853 16.4571 320.583 16.3358 320.256 16.1771C319.939 16.0091 319.701 15.8411 319.542 15.6731C319.383 15.4958 319.239 15.2671 319.108 14.9871C318.987 14.7071 318.926 14.3898 318.926 14.0351C318.926 13.1858 319.225 12.5138 319.822 12.0191C320.419 11.5151 321.147 11.2631 322.006 11.2631C322.781 11.2631 323.453 11.4591 324.022 11.8511C324.601 12.2431 325.035 12.7611 325.324 13.4051L324.232 14.0351C323.812 13.0271 323.07 12.5231 322.006 12.5231C321.474 12.5231 321.045 12.6538 320.718 12.9151C320.391 13.1765 320.228 13.5311 320.228 13.9791C320.228 14.4085 320.382 14.7351 320.69 14.9591C320.998 15.1831 321.53 15.4165 322.286 15.6591C322.557 15.7431 322.748 15.8038 322.86 15.8411C322.972 15.8785 323.145 15.9438 323.378 16.0371C323.621 16.1305 323.798 16.2051 323.91 16.2611C324.022 16.3171 324.171 16.3965 324.358 16.4991C324.554 16.6018 324.699 16.6998 324.792 16.7931C324.885 16.8865 324.993 17.0031 325.114 17.1431C325.245 17.2738 325.338 17.4091 325.394 17.5491C325.45 17.6891 325.497 17.8525 325.534 18.0391C325.581 18.2165 325.604 18.4078 325.604 18.6131C325.604 19.4718 325.291 20.1578 324.666 20.6711C324.041 21.1751 323.224 21.4271 322.216 21.4271ZM328.379 20.0131H332.607V21.2451H327.077V11.4451H328.379V20.0131Z" fill="white"/>
<rect x="357" y="0.245117" width="84" height="32" rx="5" fill="#01C096"/>
<path d="M372.05 11.4451H373.352V21.2451H372.05V11.4451ZM378.814 14.0631C379.636 14.0631 380.294 14.3245 380.788 14.8471C381.283 15.3605 381.53 16.0605 381.53 16.9471V21.2451H380.312V17.0171C380.312 16.4478 380.158 16.0091 379.85 15.7011C379.542 15.3838 379.118 15.2251 378.576 15.2251C377.97 15.2251 377.48 15.4165 377.106 15.7991C376.733 16.1725 376.546 16.7511 376.546 17.5351V21.2451H375.328V14.2451H376.546V15.2531C377.041 14.4598 377.797 14.0631 378.814 14.0631ZM389.027 11.4451H390.245V21.2451H389.027V20.0411C388.42 20.9651 387.538 21.4271 386.381 21.4271C385.401 21.4271 384.565 21.0725 383.875 20.3631C383.184 19.6445 382.839 18.7718 382.839 17.7451C382.839 16.7185 383.184 15.8505 383.875 15.1411C384.565 14.4225 385.401 14.0631 386.381 14.0631C387.538 14.0631 388.42 14.5251 389.027 15.4491V11.4451ZM386.535 20.2511C387.244 20.2511 387.837 20.0131 388.313 19.5371C388.789 19.0518 389.027 18.4545 389.027 17.7451C389.027 17.0358 388.789 16.4431 388.313 15.9671C387.837 15.4818 387.244 15.2391 386.535 15.2391C385.835 15.2391 385.247 15.4818 384.771 15.9671C384.295 16.4431 384.057 17.0358 384.057 17.7451C384.057 18.4545 384.295 19.0518 384.771 19.5371C385.247 20.0131 385.835 20.2511 386.535 20.2511ZM392.706 12.9711C392.473 12.9711 392.277 12.8918 392.118 12.7331C391.959 12.5745 391.88 12.3831 391.88 12.1591C391.88 11.9351 391.959 11.7438 392.118 11.5851C392.277 11.4171 392.473 11.3331 392.706 11.3331C392.93 11.3331 393.121 11.4171 393.28 11.5851C393.439 11.7438 393.518 11.9351 393.518 12.1591C393.518 12.3831 393.439 12.5745 393.28 12.7331C393.121 12.8918 392.93 12.9711 392.706 12.9711ZM392.09 21.2451V14.2451H393.308V21.2451H392.09ZM400.962 14.2451H402.18V21.2451H400.962V20.0411C400.356 20.9651 399.474 21.4271 398.316 21.4271C397.336 21.4271 396.501 21.0725 395.81 20.3631C395.12 19.6445 394.774 18.7718 394.774 17.7451C394.774 16.7185 395.12 15.8505 395.81 15.1411C396.501 14.4225 397.336 14.0631 398.316 14.0631C399.474 14.0631 400.356 14.5251 400.962 15.4491V14.2451ZM398.47 20.2511C399.18 20.2511 399.772 20.0131 400.248 19.5371C400.724 19.0518 400.962 18.4545 400.962 17.7451C400.962 17.0358 400.724 16.4431 400.248 15.9671C399.772 15.4818 399.18 15.2391 398.47 15.2391C397.77 15.2391 397.182 15.4818 396.706 15.9671C396.23 16.4431 395.992 17.0358 395.992 17.7451C395.992 18.4545 396.23 19.0518 396.706 19.5371C397.182 20.0131 397.77 20.2511 398.47 20.2511ZM407.652 11.4451H408.954V21.2451H407.652V11.4451ZM417.146 11.4451H418.448V21.2451H417.398L412.358 13.9231V21.2451H411.056V11.4451H412.106L417.146 18.7531V11.4451ZM427.516 21.2451H426.032L423.624 17.3811L421.216 21.2451H419.746L422.896 16.2051L419.928 11.4451H421.398L423.624 15.0151L425.85 11.4451H427.32L424.366 16.1911L427.516 21.2451Z" fill="white"/>
</svg>
