<svg width="39" height="28" viewBox="0 0 39 28" fill="none" xmlns="http://www.w3.org/2000/svg">
<path d="M20.364 27.1986L12.3627 27.0523C9.77209 27.0013 7.17501 27.1031 4.63516 26.5748C0.771475 25.7855 0.497757 21.9154 0.211341 18.6691C-0.183312 14.1051 -0.0305297 9.45841 0.71423 4.9326C1.13467 2.39315 2.78928 0.877839 5.34808 0.712944C13.9859 0.114518 22.6811 0.185438 31.2998 0.464626C32.21 0.490219 33.1265 0.630106 34.0241 0.789335C38.4545 1.56594 38.5626 5.95166 38.8498 9.64362C39.1362 13.3737 39.0153 17.1229 38.4678 20.8275C38.0286 23.8949 37.1883 26.4672 33.6421 26.7155C29.199 27.0402 24.8578 27.3016 20.4021 27.2184C20.4023 27.1986 20.3767 27.1986 20.364 27.1986ZM15.66 19.433C19.0083 17.5105 22.2927 15.6201 25.6219 13.7105C22.2673 11.788 18.9892 9.8976 15.66 7.98803V19.433Z" fill="#FF0000"/>
</svg>
