<svg width="60" height="33" viewBox="0 0 60 33" fill="none" xmlns="http://www.w3.org/2000/svg">
<rect y="0.245117" width="60" height="32" rx="5" fill="#01C096"/>
<path d="M24.65 16.1631C25.098 16.3778 25.4527 16.6858 25.714 17.0871C25.9847 17.4885 26.12 17.9505 26.12 18.4731C26.12 19.2571 25.8447 19.9151 25.294 20.4471C24.7433 20.9791 24.0713 21.2451 23.278 21.2451H19.05V11.4451H22.97C23.7353 11.4451 24.384 11.7018 24.916 12.2151C25.448 12.7285 25.714 13.3631 25.714 14.1191C25.714 14.9871 25.3593 15.6685 24.65 16.1631ZM22.97 12.6631H20.352V15.6591H22.97C23.3807 15.6591 23.726 15.5145 24.006 15.2251C24.286 14.9358 24.426 14.5811 24.426 14.1611C24.426 13.7505 24.2813 13.4005 23.992 13.1111C23.712 12.8125 23.3713 12.6631 22.97 12.6631ZM23.278 20.0271C23.7167 20.0271 24.0853 19.8731 24.384 19.5651C24.6827 19.2571 24.832 18.8791 24.832 18.4311C24.832 17.9925 24.678 17.6191 24.37 17.3111C24.0713 17.0031 23.7073 16.8491 23.278 16.8491H20.352V20.0271H23.278ZM30.6769 21.4271C29.7622 21.4271 28.9782 21.2125 28.3249 20.7831C27.6809 20.3538 27.2282 19.7658 26.9669 19.0191L28.0869 18.3751C28.4696 19.5605 29.3422 20.1531 30.7049 20.1531C31.3769 20.1531 31.8902 20.0178 32.2449 19.7471C32.5996 19.4671 32.7769 19.0985 32.7769 18.6411C32.7769 18.1745 32.5996 17.8245 32.2449 17.5911C31.8902 17.3578 31.2976 17.1105 30.4669 16.8491C30.0562 16.7185 29.7436 16.6158 29.5289 16.5411C29.3142 16.4571 29.0436 16.3358 28.7169 16.1771C28.3996 16.0091 28.1616 15.8411 28.0029 15.6731C27.8442 15.4958 27.6996 15.2671 27.5689 14.9871C27.4476 14.7071 27.3869 14.3898 27.3869 14.0351C27.3869 13.1858 27.6856 12.5138 28.2829 12.0191C28.8802 11.5151 29.6082 11.2631 30.4669 11.2631C31.2416 11.2631 31.9136 11.4591 32.4829 11.8511C33.0616 12.2431 33.4956 12.7611 33.7849 13.4051L32.6929 14.0351C32.2729 13.0271 31.5309 12.5231 30.4669 12.5231C29.9349 12.5231 29.5056 12.6538 29.1789 12.9151C28.8522 13.1765 28.6889 13.5311 28.6889 13.9791C28.6889 14.4085 28.8429 14.7351 29.1509 14.9591C29.4589 15.1831 29.9909 15.4165 30.7469 15.6591C31.0176 15.7431 31.2089 15.8038 31.3209 15.8411C31.4329 15.8785 31.6056 15.9438 31.8389 16.0371C32.0816 16.1305 32.2589 16.2051 32.3709 16.2611C32.4829 16.3171 32.6322 16.3965 32.8189 16.4991C33.0149 16.6018 33.1596 16.6998 33.2529 16.7931C33.3462 16.8865 33.4536 17.0031 33.5749 17.1431C33.7056 17.2738 33.7989 17.4091 33.8549 17.5491C33.9109 17.6891 33.9576 17.8525 33.9949 18.0391C34.0416 18.2165 34.0649 18.4078 34.0649 18.6131C34.0649 19.4718 33.7522 20.1578 33.1269 20.6711C32.5016 21.1751 31.6849 21.4271 30.6769 21.4271ZM36.8403 20.0131H41.3903V21.2451H35.5383V11.4451H41.3203V12.6771H36.8403V15.6871H40.9703V16.9051H36.8403V20.0131Z" fill="white"/>
</svg>
