<svg width="29" height="25" viewBox="0 0 29 25" fill="none" xmlns="http://www.w3.org/2000/svg">
<path d="M9.12021 24.5264C20.0641 24.5264 26.049 15.4621 26.049 7.60189C26.049 7.34447 26.0437 7.08823 26.0321 6.83305C27.1966 5.99064 28.2016 4.94761 29 3.75284C27.9339 4.22668 26.7867 4.5456 25.5832 4.68939C26.8116 3.95301 27.7547 2.78802 28.1996 1.39936C27.0316 2.09204 25.7539 2.58034 24.4215 2.84321C23.3357 1.687 21.79 0.963867 20.0784 0.963867C16.7927 0.963867 14.1282 3.62773 14.1282 6.91134C14.1282 7.37817 14.1805 7.8321 14.2826 8.26765C9.33759 8.01889 4.95269 5.65192 2.01809 2.05281C1.48954 2.96058 1.21154 3.99227 1.21246 5.04254C1.21246 7.10626 2.26283 8.92805 3.86018 9.9939C2.91533 9.96505 1.99121 9.7099 1.16554 9.24991C1.16466 9.27489 1.16466 9.29922 1.16466 9.3259C1.16466 12.2066 3.21552 14.6118 5.93799 15.1568C5.42667 15.296 4.89905 15.3664 4.3691 15.3661C3.98638 15.3661 3.61339 15.3285 3.25089 15.2589C4.00837 17.6223 6.20482 19.3422 8.80899 19.3903C6.77256 20.986 4.2073 21.9364 1.41923 21.9364C0.944946 21.9368 0.471048 21.9093 0 21.854C2.63322 23.5414 5.75962 24.5264 9.12021 24.5264Z" fill="#1DA1F2"/>
</svg>
