<svg width="505" height="234" viewBox="0 0 505 234" fill="none" xmlns="http://www.w3.org/2000/svg">
<path d="M124.5 92L125.783 91.2233L124.727 89.4788L123.376 91.0062L124.5 92ZM182 187L180.717 187.777L182.275 190.351L183.393 187.557L182 187ZM220 92L221.144 91.0296L219.532 89.1302L218.607 91.4429L220 92ZM337.5 230.5L336.356 231.47L338.39 233.867L338.974 230.779L337.5 230.5ZM372.5 45.5L373.204 44.1754L371.405 43.2194L371.026 45.2212L372.5 45.5ZM460 92L459.296 93.3246L460.744 94.0941L461.382 92.5835L460 92ZM499.39 1.43543C499.078 0.667924 498.203 0.298499 497.435 0.6103L484.928 5.69139C484.161 6.00319 483.791 6.87815 484.103 7.64566C484.415 8.41317 485.29 8.78259 486.057 8.47079L497.175 3.95427L501.691 15.0719C502.003 15.8394 502.878 16.2088 503.646 15.897C504.413 15.5852 504.783 14.7102 504.471 13.9427L499.39 1.43543ZM3.12357 231.494L4.45509 229.988L2.20795 228.001L0.876428 229.506L3.12357 231.494ZM7.11814 226.977L9.78118 223.967L7.53404 221.979L4.87099 224.99L7.11814 226.977ZM12.4442 220.956L15.1073 217.945L12.8601 215.957L10.1971 218.968L12.4442 220.956ZM17.7703 214.934L20.4334 211.923L18.1862 209.936L15.5232 212.946L17.7703 214.934ZM23.0964 208.912L25.7594 205.901L23.5123 203.914L20.8493 206.925L23.0964 208.912ZM28.4225 202.891L31.0855 199.88L28.8384 197.892L26.1753 200.903L28.4225 202.891ZM33.7486 196.869L36.4116 193.858L34.1645 191.87L31.5014 194.881L33.7486 196.869ZM39.0747 190.847L41.7377 187.836L39.4906 185.849L36.8275 188.859L39.0747 190.847ZM44.4007 184.825L47.0638 181.814L44.8166 179.827L42.1536 182.838L44.4007 184.825ZM49.7268 178.804L52.3899 175.793L50.1427 173.805L47.4797 176.816L49.7268 178.804ZM55.0529 172.782L57.716 169.771L55.4688 167.783L52.8058 170.794L55.0529 172.782ZM60.379 166.76L63.042 163.749L60.7949 161.762L58.1318 164.773L60.379 166.76ZM65.7051 160.738L68.3681 157.727L66.121 155.74L63.4579 158.751L65.7051 160.738ZM71.0312 154.717L73.6942 151.706L71.4471 149.718L68.784 152.729L71.0312 154.717ZM76.3573 148.695L79.0203 145.684L76.7731 143.696L74.1101 146.707L76.3573 148.695ZM81.6833 142.673L84.3464 139.662L82.0992 137.675L79.4362 140.686L81.6833 142.673ZM87.0094 136.651L89.6725 133.641L87.4253 131.653L84.7623 134.664L87.0094 136.651ZM92.3355 130.63L94.9985 127.619L92.7514 125.631L90.0884 128.642L92.3355 130.63ZM97.6616 124.608L100.325 121.597L98.0775 119.61L95.4144 122.62L97.6616 124.608ZM102.988 118.586L105.651 115.575L103.404 113.588L100.741 116.599L102.988 118.586ZM108.314 112.564L110.977 109.554L108.73 107.566L106.067 110.577L108.314 112.564ZM113.64 106.543L116.303 103.532L114.056 101.544L111.393 104.555L113.64 106.543ZM118.966 100.521L121.629 97.5101L119.382 95.5226L116.719 98.5334L118.966 100.521ZM124.292 94.4993L125.624 92.9938L123.376 91.0062L122.045 92.5117L124.292 94.4993ZM123.217 92.7767L124.244 94.4731L126.81 92.9197L125.783 91.2233L123.217 92.7767ZM126.297 97.866L128.351 101.259L130.917 99.7054L128.864 96.3126L126.297 97.866ZM130.404 104.652L132.458 108.045L135.024 106.491L132.971 103.098L130.404 104.652ZM134.511 111.437L136.565 114.83L139.131 113.277L137.078 109.884L134.511 111.437ZM138.619 118.223L140.672 121.616L143.239 120.063L141.185 116.67L138.619 118.223ZM142.726 125.009L144.779 128.402L147.346 126.848L145.292 123.455L142.726 125.009ZM146.833 131.795L148.886 135.187L151.453 133.634L149.399 130.241L146.833 131.795ZM150.94 138.58L152.994 141.973L155.56 140.42L153.506 137.027L150.94 138.58ZM155.047 145.366L157.101 148.759L159.667 147.205L157.614 143.813L155.047 145.366ZM159.154 152.152L161.208 155.545L163.774 153.991L161.721 150.598L159.154 152.152ZM163.261 158.937L165.315 162.33L167.881 160.777L165.828 157.384L163.261 158.937ZM167.369 165.723L169.422 169.116L171.989 167.563L169.935 164.17L167.369 165.723ZM171.476 172.509L173.529 175.902L176.096 174.348L174.042 170.955L171.476 172.509ZM175.583 179.295L177.636 182.687L180.203 181.134L178.149 177.741L175.583 179.295ZM179.69 186.08L180.717 187.777L183.283 186.223L182.256 184.527L179.69 186.08ZM183.393 187.557L184.123 185.73L181.338 184.616L180.607 186.443L183.393 187.557ZM185.585 182.076L187.047 178.422L184.261 177.308L182.8 180.962L185.585 182.076ZM188.508 174.769L189.97 171.115L187.184 170.001L185.723 173.654L188.508 174.769ZM191.431 167.461L192.893 163.807L190.107 162.693L188.646 166.347L191.431 167.461ZM194.354 160.153L195.816 156.499L193.03 155.385L191.569 159.039L194.354 160.153ZM197.277 152.846L198.739 149.192L195.953 148.078L194.492 151.731L197.277 152.846ZM200.2 145.538L201.662 141.884L198.877 140.77L197.415 144.424L200.2 145.538ZM203.123 138.23L204.585 134.576L201.8 133.462L200.338 137.116L203.123 138.23ZM206.047 130.922L207.508 127.269L204.723 126.154L203.261 129.808L206.047 130.922ZM208.97 123.615L210.431 119.961L207.646 118.847L206.184 122.501L208.97 123.615ZM211.893 116.307L213.354 112.653L210.569 111.539L209.107 115.193L211.893 116.307ZM214.816 108.999L216.277 105.346L213.492 104.231L212.03 107.885L214.816 108.999ZM217.739 101.692L219.2 98.0379L216.415 96.9237L214.953 100.578L217.739 101.692ZM220.662 94.384L221.393 92.5571L218.607 91.4429L217.877 93.2698L220.662 94.384ZM218.856 92.9704L220.133 94.4758L222.421 92.535L221.144 91.0296L218.856 92.9704ZM222.688 97.4867L225.242 100.498L227.53 98.5568L224.975 95.5459L222.688 97.4867ZM227.796 103.508L230.351 106.519L232.638 104.579L230.084 101.568L227.796 103.508ZM232.905 109.53L235.459 112.541L237.747 110.6L235.193 107.589L232.905 109.53ZM238.014 115.552L240.568 118.563L242.856 116.622L240.301 113.611L238.014 115.552ZM243.122 121.574L245.677 124.585L247.964 122.644L245.41 119.633L243.122 121.574ZM248.231 127.595L250.786 130.606L253.073 128.665L250.519 125.655L248.231 127.595ZM253.34 133.617L255.894 136.628L258.182 134.687L255.628 131.676L253.34 133.617ZM258.449 139.639L261.003 142.65L263.291 140.709L260.736 137.698L258.449 139.639ZM263.557 145.661L266.112 148.671L268.399 146.731L265.845 143.72L263.557 145.661ZM268.666 151.682L271.22 154.693L273.508 152.752L270.954 149.742L268.666 151.682ZM273.775 157.704L276.329 160.715L278.617 158.774L276.062 155.763L273.775 157.704ZM278.883 163.726L281.438 166.737L283.725 164.796L281.171 161.785L278.883 163.726ZM283.992 169.748L286.546 172.758L288.834 170.818L286.28 167.807L283.992 169.748ZM289.101 175.769L291.655 178.78L293.943 176.839L291.388 173.828L289.101 175.769ZM294.209 181.791L296.764 184.802L299.051 182.861L296.497 179.85L294.209 181.791ZM299.318 187.813L301.872 190.824L304.16 188.883L301.606 185.872L299.318 187.813ZM304.427 193.834L306.981 196.845L309.269 194.905L306.714 191.894L304.427 193.834ZM309.535 199.856L312.09 202.867L314.378 200.926L311.823 197.915L309.535 199.856ZM314.644 205.878L317.199 208.889L319.486 206.948L316.932 203.937L314.644 205.878ZM319.753 211.9L322.307 214.911L324.595 212.97L322.041 209.959L319.753 211.9ZM324.862 217.921L327.416 220.932L329.704 218.992L327.149 215.981L324.862 217.921ZM329.97 223.943L332.525 226.954L334.812 225.013L332.258 222.002L329.97 223.943ZM335.079 229.965L336.356 231.47L338.644 229.53L337.367 228.024L335.079 229.965ZM338.974 230.779L339.338 228.852L336.391 228.294L336.026 230.221L338.974 230.779ZM340.068 224.998L340.797 221.143L337.849 220.586L337.12 224.44L340.068 224.998ZM341.526 217.289L342.255 213.435L339.307 212.877L338.578 216.732L341.526 217.289ZM342.984 209.581L343.713 205.727L340.766 205.169L340.037 209.023L342.984 209.581ZM344.443 201.873L345.172 198.018L342.224 197.461L341.495 201.315L344.443 201.873ZM345.901 194.164L346.63 190.31L343.682 189.752L342.953 193.607L345.901 194.164ZM347.359 186.456L348.088 182.602L345.141 182.044L344.412 185.898L347.359 186.456ZM348.818 178.748L349.547 174.893L346.599 174.336L345.87 178.19L348.818 178.748ZM350.276 171.039L351.005 167.185L348.057 166.627L347.328 170.482L350.276 171.039ZM351.734 163.331L352.463 159.477L349.516 158.919L348.787 162.773L351.734 163.331ZM353.193 155.623L353.922 151.768L350.974 151.211L350.245 155.065L353.193 155.623ZM354.651 147.914L355.38 144.06L352.432 143.502L351.703 147.357L354.651 147.914ZM356.109 140.206L356.838 136.352L353.891 135.794L353.162 139.648L356.109 140.206ZM357.568 132.498L358.297 128.643L355.349 128.086L354.62 131.94L357.568 132.498ZM359.026 124.789L359.755 120.935L356.807 120.377L356.078 124.232L359.026 124.789ZM360.484 117.081L361.213 113.227L358.266 112.669L357.537 116.523L360.484 117.081ZM361.943 109.373L362.672 105.518L359.724 104.961L358.995 108.815L361.943 109.373ZM363.401 101.664L364.13 97.8101L361.182 97.2524L360.453 101.107L363.401 101.664ZM364.859 93.9559L365.588 90.1017L362.641 89.5441L361.912 93.3982L364.859 93.9559ZM366.318 86.2476L367.047 82.3934L364.099 81.8357L363.37 85.6899L366.318 86.2476ZM367.776 78.5392L368.505 74.6851L365.557 74.1274L364.828 77.9816L367.776 78.5392ZM369.234 70.8309L369.963 66.9768L367.016 66.4191L366.287 70.2732L369.234 70.8309ZM370.693 63.1226L371.422 59.2684L368.474 58.7108L367.745 62.5649L370.693 63.1226ZM372.151 55.4143L372.88 51.5601L369.932 51.0024L369.203 54.8566L372.151 55.4143ZM373.609 47.7059L373.974 45.7788L371.026 45.2212L370.662 47.1483L373.609 47.7059ZM371.796 46.8246L373.619 47.7933L375.027 45.1442L373.204 44.1754L371.796 46.8246ZM377.265 49.7308L380.911 51.6683L382.319 49.0192L378.673 47.0817L377.265 49.7308ZM384.556 53.6058L388.202 55.5433L389.61 52.8942L385.964 50.9567L384.556 53.6058ZM391.848 57.4808L395.494 59.4183L396.902 56.7692L393.256 54.8317L391.848 57.4808ZM399.14 61.3558L402.786 63.2933L404.194 60.6442L400.548 58.7067L399.14 61.3558ZM406.431 65.2308L410.077 67.1683L411.485 64.5192L407.839 62.5817L406.431 65.2308ZM413.723 69.1058L417.369 71.0433L418.777 68.3942L415.131 66.4567L413.723 69.1058ZM421.015 72.9808L424.661 74.9183L426.069 72.2692L422.423 70.3317L421.015 72.9808ZM428.306 76.8558L431.952 78.7933L433.36 76.1442L429.714 74.2067L428.306 76.8558ZM435.598 80.7308L439.244 82.6683L440.652 80.0192L437.006 78.0817L435.598 80.7308ZM442.89 84.6058L446.536 86.5433L447.943 83.8942L444.298 81.9567L442.89 84.6058ZM450.181 88.4808L453.827 90.4183L455.235 87.7692L451.589 85.8317L450.181 88.4808ZM457.473 92.3558L459.296 93.3246L460.704 90.6754L458.881 89.7067L457.473 92.3558ZM461.382 92.5835L462.174 90.7085L459.41 89.5415L458.618 91.4165L461.382 92.5835ZM463.757 86.9585L465.34 83.2085L462.576 82.0415L460.993 85.7915L463.757 86.9585ZM466.924 79.4585L468.507 75.7085L465.743 74.5415L464.16 78.2915L466.924 79.4585ZM470.09 71.9585L471.674 68.2085L468.91 67.0415L467.326 70.7915L470.09 71.9585ZM473.257 64.4585L474.84 60.7085L472.076 59.5415L470.493 63.2915L473.257 64.4585ZM476.424 56.9585L478.007 53.2085L475.243 52.0415L473.66 55.7915L476.424 56.9585ZM479.59 49.4585L481.174 45.7085L478.41 44.5415L476.826 48.2915L479.59 49.4585ZM482.757 41.9585L484.34 38.2085L481.576 37.0415L479.993 40.7915L482.757 41.9585ZM485.924 34.4585L487.507 30.7085L484.743 29.5416L483.16 33.2915L485.924 34.4585ZM489.09 26.9585L490.674 23.2085L487.91 22.0416L486.326 25.7916L489.09 26.9585ZM492.257 19.4585L493.84 15.7085L491.076 14.5416L489.493 18.2916L492.257 19.4585ZM495.424 11.9585L497.007 8.20848L494.243 7.04156L492.66 10.7916L495.424 11.9585ZM498.59 4.45848L499.382 2.58346L496.618 1.41654L495.826 3.29156L498.59 4.45848Z" fill="#38B990"/>
</svg>
