<svg width="207" height="66" viewBox="0 0 207 66" fill="none" xmlns="http://www.w3.org/2000/svg">
<path d="M72.3162 48.0873C72.3162 44.3981 72.3162 40.7092 72.3162 37.0204C72.3162 35.8744 72.4862 34.7528 73.0111 33.7184C73.7606 32.2426 74.9823 31.3519 76.5756 30.9592C77.2416 30.7943 77.9231 30.7462 78.6084 30.7468C84.3693 30.7524 90.1304 30.7535 95.8918 30.75C96.4115 30.75 96.4115 30.75 96.4115 31.2666C96.4115 33.1377 96.3814 35.0088 96.4211 36.8793C96.4564 38.5566 95.4477 39.3375 93.961 39.3972C93.4476 39.4177 92.9311 39.4023 92.4158 39.4023H81.9155C81.4561 39.4023 81.4548 39.4023 81.4548 39.8515C81.4548 45.2749 81.4548 50.6983 81.4548 56.1217C81.4548 56.5413 81.4619 56.549 81.8745 56.549H98.3385C98.7504 56.549 98.7568 56.5413 98.7568 56.1204C98.7568 52.2841 98.7568 48.4477 98.7568 44.6114C98.7569 44.3066 98.7816 44.0023 98.8306 43.7015C99.0122 42.5593 99.6917 41.9222 100.903 41.747C101.214 41.7008 101.529 41.6776 101.845 41.6777C103.684 41.6822 105.524 41.686 107.363 41.6738C107.676 41.6738 107.779 41.7611 107.779 42.0832C107.77 47.78 107.786 53.4767 107.763 59.1728C107.756 60.6679 107.185 62.0026 106.193 63.105C104.965 64.4749 103.397 65.1724 101.535 65.2052C95.3226 65.313 89.11 65.2546 82.8973 65.2411C81.5742 65.2379 80.2491 65.202 78.9254 65.209C77.0222 65.2199 75.4488 64.4897 74.0673 63.2198C72.8205 62.0706 72.3065 60.6576 72.3123 58.997C72.3245 55.3587 72.3162 51.7243 72.3162 48.0873Z" fill="#38B990"/>
<path d="M107.779 35.9268C107.515 34.4805 106.904 33.2254 105.729 32.2738C104.748 31.4781 103.653 30.9744 102.401 30.8339C101.952 30.7832 101.496 30.789 101.047 30.7312H98.9047C98.9047 31.2356 98.9047 31.7397 98.9047 32.2436C98.9047 33.8927 98.899 35.5424 98.9099 37.1915C98.9163 38.2112 99.3962 38.9818 100.162 39.2237C100.592 39.3635 101.041 39.4358 101.493 39.438C103.637 39.4303 105.78 39.4348 107.924 39.4348V37.7318C107.857 37.1306 107.888 36.5184 107.779 35.9268Z" fill="#38B990"/>
<path d="M129.72 41.8635V43.2051H126.276V54.5H124.626V43.2051H121.163V41.8635H129.72ZM138.405 54.5L135.395 49.333H133.401V54.5H131.751V41.8635H135.83C136.785 41.8635 137.589 42.0267 138.242 42.353C138.907 42.6793 139.402 43.1205 139.728 43.6765C140.055 44.2325 140.218 44.867 140.218 45.5801C140.218 46.4504 139.964 47.2179 139.456 47.8826C138.961 48.5474 138.212 48.9885 137.208 49.2061L140.381 54.5H138.405ZM133.401 48.0095H135.83C136.725 48.0095 137.396 47.792 137.843 47.3568C138.29 46.9096 138.514 46.3174 138.514 45.5801C138.514 44.8308 138.29 44.2506 137.843 43.8397C137.408 43.4287 136.737 43.2232 135.83 43.2232H133.401V48.0095ZM150.251 51.6899H144.739L143.724 54.5H141.984L146.552 41.936H148.456L153.007 54.5H151.266L150.251 51.6899ZM149.78 50.3483L147.495 43.9666L145.211 50.3483H149.78ZM158.932 41.8635C160.31 41.8635 161.5 42.1234 162.504 42.6431C163.519 43.1507 164.292 43.882 164.824 44.8368C165.368 45.7916 165.64 46.9157 165.64 48.2089C165.64 49.5022 165.368 50.6263 164.824 51.5811C164.292 52.5238 163.519 53.249 162.504 53.7567C161.5 54.2522 160.31 54.5 158.932 54.5H154.998V41.8635H158.932ZM158.932 53.1403C160.564 53.1403 161.809 52.7112 162.667 51.853C163.525 50.9828 163.954 49.7681 163.954 48.2089C163.954 46.6377 163.519 45.4109 162.649 44.5286C161.79 43.6463 160.552 43.2051 158.932 43.2051H156.648V53.1403H158.932ZM169.466 43.2051V47.4294H174.071V48.7891H169.466V53.1403H174.615V54.5H167.816V41.8454H174.615V43.2051H169.466ZM183.475 41.8635V51.2004C183.475 52.2398 183.155 53.0738 182.514 53.7023C181.873 54.3187 181.027 54.6269 179.976 54.6269C178.912 54.6269 178.06 54.3127 177.419 53.6842C176.779 53.0436 176.459 52.1733 176.459 51.0735H178.108C178.12 51.6899 178.278 52.1915 178.58 52.5782C178.894 52.965 179.359 53.1584 179.976 53.1584C180.592 53.1584 181.051 52.9771 181.354 52.6145C181.656 52.2398 181.807 51.7684 181.807 51.2004V41.8635H183.475ZM188.375 41.8635V54.5H186.725V41.8635H188.375ZM201.122 54.5H199.472L192.836 44.4379V54.5H191.187V41.8454H192.836L199.472 51.8893V41.8454H201.122V54.5ZM205.584 41.8635V54.5H203.934V41.8635H205.584Z" fill="#23AC80"/>
<path d="M0.872121 22.5293V19.4042H6.71049V37.0647H3.222V22.5293H0.872121ZM10.061 28.0043C10.061 25.2103 10.5617 23.0219 11.563 21.4392C12.5805 19.8565 14.2601 19.0651 16.6019 19.0651C18.9437 19.0651 20.6153 19.8565 21.6166 21.4392C22.6341 23.0219 23.1428 25.2103 23.1428 28.0043C23.1428 30.8145 22.6341 33.019 21.6166 34.6179C20.6153 36.2168 18.9437 37.0162 16.6019 37.0162C14.2601 37.0162 12.5805 36.2168 11.563 34.6179C10.5617 33.019 10.061 30.8145 10.061 28.0043ZM19.7997 28.0043C19.7997 26.8092 19.7189 25.8079 19.5574 25.0004C19.4121 24.1767 19.1052 23.5064 18.6369 22.9896C18.1846 22.4728 17.5063 22.2144 16.6019 22.2144C15.6975 22.2144 15.0111 22.4728 14.5427 22.9896C14.0905 23.5064 13.7837 24.1767 13.6222 25.0004C13.4768 25.8079 13.4041 26.8092 13.4041 28.0043C13.4041 29.2318 13.4768 30.2654 13.6222 31.1052C13.7675 31.9289 14.0744 32.5991 14.5427 33.1159C15.0111 33.6166 15.6975 33.8669 16.6019 33.8669C17.5063 33.8669 18.1927 33.6166 18.6611 33.1159C19.1294 32.5991 19.4363 31.9289 19.5817 31.1052C19.727 30.2654 19.7997 29.2318 19.7997 28.0043Z" fill="white"/>
<g filter="url(#filter0_d_1494_33541)">
<path d="M18.0029 53.7551C17.3112 53.7577 16.9979 53.4939 16.8415 52.8333L16.8331 52.7917C16.4562 50.9432 17.5076 48.7786 18.398 47.098C20.1456 43.7863 22.4003 41.3703 24.9042 38.6909C25.0828 38.5058 25.1947 38.3118 25.2772 38.0802C25.6196 37.0006 26.1027 35.6567 26.366 34.6138C26.3452 34.6178 26.3201 34.601 26.2951 34.5842C26.2122 34.7079 26.1042 34.8149 26.0212 34.9386C25.4114 35.7672 23.5731 38.1036 22.7124 38.6565C22.5793 38.7466 22.417 38.7992 22.2921 38.8231C21.8757 38.9026 21.5457 38.6635 21.4483 38.1858L21.4229 38.0612C21.1329 36.0019 22.673 32.9455 23.3809 32.8103C23.4642 32.7944 23.5309 32.8032 23.5853 32.8576C23.6647 32.9287 23.7024 33.0078 23.7194 33.0909C23.7744 33.3609 23.5962 33.6539 23.4473 33.9845C22.9383 35.0959 22.5879 36.2418 22.3585 37.4509C22.3256 37.6082 22.272 37.7695 22.3059 37.9357C22.3228 38.0188 22.3563 38.0771 22.3941 38.1562C22.6185 37.9839 22.8306 37.857 23.0092 37.6719C24.7956 36.0359 25.6207 34.7777 27.0147 32.9146C27.0645 32.8404 27.11 32.7453 27.1848 32.6879C27.243 32.6552 27.3013 32.6225 27.3429 32.6145C27.4678 32.5907 27.5472 32.6618 27.5726 32.7864L27.5896 32.8695C27.6068 33.0604 26.601 36.4031 26.4651 36.9038L26.4778 36.9661C26.4821 36.9869 26.4905 37.0284 26.4824 37.0947C28.3888 35.1984 30.442 33.5978 32.7087 32.3016C32.7337 32.3184 32.763 32.356 32.7881 32.3728C32.7383 32.447 32.6885 32.5213 32.6137 32.5787C32.2354 32.8452 31.8529 33.0909 31.4703 33.3366C29.5869 34.6027 27.9042 36.111 26.3345 37.7488C26.1934 37.9052 26.0857 38.12 26.0197 38.3268C25.5994 39.7666 25.2207 41.1984 24.7961 42.6174C23.8146 45.7612 22.4308 49.4782 20.4771 52.2035C19.9918 52.9004 19.1523 53.5571 18.3194 53.7162C18.2153 53.7361 18.1112 53.756 18.0029 53.7551ZM17.4666 50.2754C17.215 51.0572 17.1133 51.8319 17.2742 52.6211L17.2911 52.7042C17.3928 53.2027 17.614 53.3331 18.1596 53.2504L18.2221 53.2385C18.8259 53.1232 19.4618 52.6348 19.8228 52.1774C21.167 50.3885 22.0733 48.4675 22.7915 46.3666C23.3778 44.6794 24.5742 40.9982 24.8813 39.3211C24.1751 39.9955 23.2826 41.0291 22.635 41.7786C20.5303 44.1875 18.4608 47.1939 17.4666 50.2754ZM34.0622 36.4021L33.9373 36.4259C32.8546 36.6327 32.2522 35.9062 32.0829 35.0754C32.0151 34.7431 32.0098 34.3988 32.0755 34.0842C32.3787 32.4942 33.2246 31.232 34.5967 30.3226C34.7837 30.1789 34.9669 30.1224 35.1334 30.0906C35.5707 30.007 35.8632 30.2748 35.9352 30.6279C35.9775 30.8356 35.9574 31.0553 35.8664 31.2453C35.7174 31.5758 35.5727 31.9272 35.3193 32.1698C34.8168 32.6758 34.2433 33.1522 33.6907 33.6246C33.5245 33.7642 33.329 33.8663 33.1208 33.9061C32.9958 33.93 32.8667 33.9331 32.7125 33.9194C32.5388 34.3409 32.5109 34.7347 32.5787 35.067C32.7142 35.7317 33.2862 36.0971 34.1398 35.9341C34.3689 35.8903 34.5937 35.8258 34.8308 35.7158C36.7697 34.8275 39.7326 32.3841 41.086 30.8524C41.1192 30.8029 41.1566 30.7742 41.1983 30.7662C41.2191 30.7623 41.2441 30.7791 41.2526 30.8206C41.2568 30.8414 41.2445 30.8869 41.1947 30.9611C39.9624 32.556 36.1856 35.8885 34.0622 36.4021ZM34.903 30.9762C33.9671 31.4786 33.4448 32.3121 32.9479 33.2702C33.7881 32.8291 34.9047 31.5153 34.903 30.9762ZM41.2621 33.2788C41.2039 33.3115 41.1622 33.3194 41.0998 33.3314C40.8499 33.3791 40.5411 33.2439 40.4819 32.9531C40.4692 32.8908 40.4773 32.8245 40.4854 32.7582C40.5179 32.4931 40.5546 32.2487 40.6079 31.9795C40.8013 31.2305 41.1574 30.5367 41.6345 29.9061C41.9084 29.5516 42.316 29.3227 42.7116 29.2472C43.1904 29.1557 43.6908 29.2759 43.971 29.5892C43.9961 29.606 43.9961 29.606 44.0169 29.602C44.1002 29.5861 44.1789 29.4416 44.2788 29.4009C44.2996 29.397 44.337 29.3682 44.3578 29.3643C44.5244 29.3324 44.6458 29.5035 44.6839 29.6904C44.6966 29.7527 44.7093 29.815 44.6969 29.8605C44.6443 30.3453 44.0581 32.0326 44.2317 32.8842C44.2995 33.2165 44.4918 33.4171 44.8874 33.3415L44.9082 33.3376C47.7398 32.7966 50.7696 29.0889 51.0565 28.9047L51.0773 28.9007C51.0981 28.8967 51.0981 28.8967 51.1023 28.9175C51.1023 28.9175 51.1066 28.9382 51.09 28.963C50.0493 30.5429 46.9412 33.2297 45.1051 33.6668L44.9802 33.6907C44.1682 33.8458 43.7959 33.399 43.6731 32.7967C43.5588 32.2359 43.6357 31.5522 43.7716 31.0515C43.1403 31.6684 41.9234 32.9151 41.2621 33.2788ZM41.5699 31.8174C41.5533 31.8421 41.5081 32.045 41.5293 32.1488C41.542 32.2111 41.567 32.2279 41.5879 32.2239C41.6087 32.22 41.6461 32.1912 41.6835 32.1625C42.4313 31.4802 42.8509 31.0979 43.4357 30.2525C43.2684 30.0687 43.0849 30.0174 42.9183 30.0492C42.835 30.0651 42.7352 30.1058 42.6438 30.188C42.2323 30.504 41.7142 31.3582 41.5699 31.8174ZM51.5041 35.8108C51.4035 35.6358 51.3403 35.432 51.2938 35.2036C50.9339 33.4381 52.3709 30.7251 52.4264 29.8298C52.4179 29.7883 52.4302 29.7428 52.4218 29.7012C52.3075 29.1404 51.1291 29.4087 50.5366 29.155C50.4114 29.071 50.315 28.9168 50.2727 28.7091C50.1965 28.3353 50.2865 27.8217 50.5557 27.3387C50.6553 27.1902 50.8091 27.0961 50.9757 27.0643C51.3297 26.9967 51.7344 27.1783 51.8149 27.5729C51.853 27.7599 51.8328 27.9795 51.6712 28.2477C52.4508 28.3578 53.2095 28.4718 53.3704 29.2611C53.3958 29.3857 53.4212 29.5103 53.4092 29.6637C53.4197 30.3522 51.4343 33.5583 51.7984 35.3445L51.8238 35.4692C51.9586 35.9181 52.2596 36.2275 52.7847 36.2567C52.8722 36.2615 52.9806 36.2624 53.0847 36.2425C55.5207 35.7772 60.1675 28.3295 61.6052 27.1054C61.734 26.9944 61.8671 26.9043 61.9959 26.7934C62.046 26.827 62.0753 26.8645 62.1004 26.8813C62.034 26.9803 61.9719 27.1001 61.8763 27.1615C59.6579 29.2253 55.6799 36.0273 53.0564 36.5284C52.9523 36.5483 52.869 36.5642 52.7815 36.5594C52.069 36.566 51.743 36.2399 51.5041 35.8108ZM64.0809 36.343C63.5819 36.6541 63.1242 36.8495 62.7077 36.929C61.7292 37.1159 61.0319 36.6665 60.8498 35.7734C60.7482 35.2749 60.8085 34.616 61.0686 33.8758C62.0057 31.1505 64.6235 28.9241 66.9608 27.5497C66.7138 27.1869 62.6385 28.4185 61.9592 27.1025C61.9214 27.0234 61.8795 26.9235 61.8625 26.8404C61.5153 25.1373 64.5793 21.7036 66.0367 21.4251C66.0992 21.4132 66.1659 21.422 66.2075 21.4141C66.6575 21.3929 67.2584 21.6881 67.468 22.0796C67.4973 22.1172 67.5058 22.1587 67.5185 22.221C67.582 22.5326 67.438 23.0996 67.1049 23.1632C66.9175 23.199 66.7047 23.1102 66.4411 22.7721C66.349 22.6387 66.1906 22.6042 65.9823 22.644C64.8372 22.8627 62.3457 25.4966 62.5743 26.6181L62.5828 26.6597C62.726 27.1502 63.801 27.1175 64.8632 27.0225C65.942 26.9027 67.0081 26.7207 67.4598 27.2386C68.7532 26.4736 72.0196 25.0944 73.4598 24.6251C73.5596 24.5844 73.6429 24.5685 73.7262 24.5526C73.872 24.5248 73.9595 24.5296 73.9679 24.5712C73.9764 24.6127 73.9016 24.6701 73.681 24.7554C72.4325 25.2097 69.0122 26.6831 67.8148 27.4945C67.7774 27.5232 67.7816 27.544 67.7901 27.5855C67.8155 27.7101 68.0706 28.0066 68.1934 28.609C68.2611 28.9413 68.2876 29.3894 68.1895 29.9692C67.7557 32.4042 66.1683 35.0164 64.0809 36.343ZM61.4106 33.9615C61.1505 34.7017 61.094 35.2736 61.1787 35.689C61.3184 36.3744 61.8485 36.64 62.5564 36.5048C62.8895 36.4411 63.289 36.2785 63.6924 36.0288C65.8091 34.7397 67.5284 31.7139 67.7371 29.2356C67.7614 29.0368 67.7399 28.8251 67.7018 28.6381C67.6468 28.3681 67.5293 28.1101 67.3077 27.8719C65.2446 28.9996 62.2114 31.6291 61.4106 33.9615Z" fill="#22B691"/>
</g>
<defs>
<filter id="filter0_d_1494_33541" x="6.25307" y="13.815" width="77.6175" height="46.4095" filterUnits="userSpaceOnUse" color-interpolation-filters="sRGB">
<feFlood flood-opacity="0" result="BackgroundImageFix"/>
<feColorMatrix in="SourceAlpha" type="matrix" values="0 0 0 0 0 0 0 0 0 0 0 0 0 0 0 0 0 0 127 0" result="hardAlpha"/>
<feOffset/>
<feGaussianBlur stdDeviation="3.13485"/>
<feComposite in2="hardAlpha" operator="out"/>
<feColorMatrix type="matrix" values="0 0 0 0 0.133333 0 0 0 0 0.713726 0 0 0 0 0.568627 0 0 0 0.5 0"/>
<feBlend mode="normal" in2="BackgroundImageFix" result="effect1_dropShadow_1494_33541"/>
<feBlend mode="normal" in="SourceGraphic" in2="effect1_dropShadow_1494_33541" result="shape"/>
</filter>
</defs>
</svg>
